<svg xmlns="http://www.w3.org/2000/svg" width="24" height="21" viewBox="0 0 24 21" fill="none">
<path d="M9.50198 8.836C11.942 8.836 13.92 6.85799 13.92 4.418C13.92 1.97801 11.942 0 9.50198 0C7.06199 0 5.08398 1.97801 5.08398 4.418C5.08398 6.85799 7.06199 8.836 9.50198 8.836Z" fill="#BBCDF7"/>
<path d="M4.244 12.2061H14.071C15.1966 12.2061 16.2761 12.6532 17.072 13.4491C17.8679 14.245 18.315 15.3245 18.315 16.4501V20.4991H0V16.4501C0 15.3245 0.447134 14.245 1.24304 13.4491C2.03894 12.6532 3.11842 12.2061 4.244 12.2061Z" fill="#BBCDF7"/>
<circle cx="19" cy="16" r="5" fill="#F5F9FF"/>
<path d="M19.0043 12C18.691 11.9997 18.3788 12.0378 18.0747 12.1133C17.1207 12.3403 16.2833 12.9094 15.7215 13.7125C15.1598 14.5155 14.9128 15.4967 15.0275 16.4697C15.1421 17.4427 15.6105 18.3398 16.3436 18.9906C17.0768 19.6414 18.0236 20.0006 19.0043 20C19.262 20.0007 19.519 19.9757 19.7717 19.9252C20.7466 19.7327 21.6151 19.185 22.2083 18.3885C22.8015 17.5919 23.0771 16.6035 22.9814 15.6154C22.8857 14.6272 22.4256 13.7099 21.6906 13.0417C20.9556 12.3735 19.9981 12.0023 19.0043 12ZM21.7675 16.7785H19.7779V18.7615H18.225V16.7785H16.2399V15.2193H18.225V13.2363H19.7779V15.2193H21.7704L21.7675 16.7785Z" fill="#BBCDF7"/>
</svg>