<svg width="88" height="31" viewBox="0 0 88 31" fill="none" xmlns="http://www.w3.org/2000/svg">
<g filter="url(#filter0_bd_1_12)">
<path d="M35.0625 23H30.5781V0.59375H46.2656V5.07812H35.0625V9.5625H41.7812V14.0469H35.0625V23Z" fill="#FD8B05"/>
<path d="M57.7344 23H53.2656V5.07812H46.5312V0.59375H64.4531V5.07812H57.7344V23Z" fill="#0A22F8"/>
<path d="M79.4844 14.0469V9.5625C79.4844 8.94792 79.3646 8.36979 79.125 7.82812C78.8958 7.27604 78.5781 6.79688 78.1719 6.39062C77.7656 5.98438 77.2865 5.66667 76.7344 5.4375C76.1927 5.19792 75.6146 5.07812 75 5.07812C74.3854 5.07812 73.8021 5.19792 73.25 5.4375C72.7083 5.66667 72.2344 5.98438 71.8281 6.39062C71.4219 6.79688 71.099 7.27604 70.8594 7.82812C70.6302 8.36979 70.5156 8.94792 70.5156 9.5625V14.0469H79.4844ZM83.9688 23H79.4844V18.5156H70.5156V23H66.0469V9.5625C66.0469 8.32292 66.2812 7.16146 66.75 6.07812C67.2188 4.98438 67.8542 4.03125 68.6562 3.21875C69.4688 2.40625 70.4167 1.76562 71.5 1.29688C72.5938 0.828125 73.7604 0.59375 75 0.59375C76.2396 0.59375 77.401 0.828125 78.4844 1.29688C79.5781 1.76562 80.5312 2.40625 81.3438 3.21875C82.1562 4.03125 82.7969 4.98438 83.2656 6.07812C83.7344 7.16146 83.9688 8.32292 83.9688 9.5625V23Z" fill="black"/>
<path d="M15.5 23C13.9092 23 12.4142 22.6981 11.015 22.0944C9.61583 21.4906 8.39875 20.6712 7.36375 19.6362C6.32875 18.6012 5.50938 17.3842 4.90563 15.985C4.30188 14.5858 4 13.0908 4 11.5C4 9.90917 4.30188 8.41417 4.90563 7.015C5.50938 5.61583 6.32875 4.39875 7.36375 3.36375C8.39875 2.32875 9.61583 1.50938 11.015 0.905625C12.4142 0.301875 13.9092 0 15.5 0C17.0908 0 18.5858 0.301875 19.985 0.905625C21.3842 1.50938 22.6012 2.32875 23.6362 3.36375C24.6712 4.39875 25.4906 5.61583 26.0944 7.015C26.6981 8.41417 27 9.90917 27 11.5C27 13.0908 26.6981 14.5858 26.0944 15.985C25.4906 17.3842 24.6712 18.6012 23.6362 19.6362C22.6012 20.6712 21.3842 21.4906 19.985 22.0944C18.5858 22.6981 17.0908 23 15.5 23ZM14.2638 21.2463V18.8888C13.5929 18.8888 13.0275 18.6396 12.5675 18.1413C12.1075 17.6429 11.8775 17.0583 11.8775 16.3875V15.1225L5.98375 9.22875C5.88792 9.61208 5.82083 9.99063 5.7825 10.3644C5.74417 10.7381 5.725 11.1167 5.725 11.5C5.725 13.9917 6.53479 16.1671 8.15438 18.0263C9.77396 19.8854 11.8104 20.9588 14.2638 21.2463ZM22.7162 18.1413C23.1379 17.6813 23.5069 17.1925 23.8231 16.675C24.1394 16.1575 24.4077 15.616 24.6281 15.0506C24.8485 14.4852 25.0115 13.9054 25.1169 13.3113C25.2223 12.7171 25.275 12.1133 25.275 11.5C25.275 9.46833 24.7192 7.62354 23.6075 5.96563C22.4958 4.30771 21.0104 3.09542 19.1512 2.32875V2.84625C19.1512 3.51708 18.9213 4.10167 18.4613 4.6C18.0013 5.09833 17.4358 5.3475 16.765 5.3475H14.2638V7.84875C14.2638 8.17458 14.1344 8.44292 13.8756 8.65375C13.6169 8.86458 13.3246 8.97 12.9987 8.97H10.6125V11.5H18.03C18.3558 11.5 18.6242 11.6246 18.835 11.8738C19.0458 12.1229 19.1512 12.4104 19.1512 12.7362V16.3875H20.3875C20.9433 16.3875 21.4321 16.5504 21.8538 16.8763C22.2754 17.2021 22.5629 17.6238 22.7162 18.1413Z" fill="black"/>
</g>
<defs>
<filter id="filter0_bd_1_12" x="0" y="-4" width="87.9688" height="35" filterUnits="userSpaceOnUse" color-interpolation-filters="sRGB">
<feFlood flood-opacity="0" result="BackgroundImageFix"/>
<feGaussianBlur in="BackgroundImageFix" stdDeviation="2"/>
<feComposite in2="SourceAlpha" operator="in" result="effect1_backgroundBlur_1_12"/>
<feColorMatrix in="SourceAlpha" type="matrix" values="0 0 0 0 0 0 0 0 0 0 0 0 0 0 0 0 0 0 127 0" result="hardAlpha"/>
<feOffset dy="4"/>
<feGaussianBlur stdDeviation="2"/>
<feComposite in2="hardAlpha" operator="out"/>
<feColorMatrix type="matrix" values="0 0 0 0 0 0 0 0 0 0 0 0 0 0 0 0 0 0 0.25 0"/>
<feBlend mode="normal" in2="effect1_backgroundBlur_1_12" result="effect2_dropShadow_1_12"/>
<feBlend mode="normal" in="SourceGraphic" in2="effect2_dropShadow_1_12" result="shape"/>
</filter>
</defs>
</svg>
