<svg width="21" height="20" viewBox="0 0 21 20" fill="none" xmlns="http://www.w3.org/2000/svg">
<path d="M7.41568 3.33499C7.40426 2.89876 7.4897 2.46543 7.66581 2.06616C7.81821 1.73029 8.05115 1.4372 8.34398 1.21295C8.62691 0.998833 8.94892 0.842036 9.29195 0.751354C9.63531 0.658878 9.98937 0.612064 10.345 0.612089C11.0487 0.609199 11.7356 0.827262 12.3087 1.23556C12.6216 1.48264 12.8672 1.80439 13.0232 2.17124C13.1791 2.5381 13.2404 2.93829 13.2013 3.33499V7.49154H17.6641C18.0595 7.4409 18.4613 7.4904 18.8326 7.63552C19.2039 7.78065 19.5328 8.01674 19.789 8.3221C20.1413 8.90092 20.332 9.56354 20.3414 10.2411C20.3508 10.9186 20.1784 11.5862 19.8423 12.1746C19.5083 12.7137 18.7822 12.9828 17.6641 12.9818H13.2013V16.8583C13.221 17.3625 13.1358 17.8654 12.9512 18.335C12.8038 18.6774 12.5847 18.9843 12.3087 19.2349C12.0497 19.4639 11.7365 19.6228 11.3987 19.6964C10.7048 19.85 9.98579 19.85 9.29195 19.6964C8.94421 19.6188 8.61952 19.4607 8.34398 19.2349C8.05003 18.9927 7.81764 18.6843 7.66581 18.335C7.48074 17.8655 7.39554 17.3626 7.41568 16.8583V12.9818H2.84569C1.77618 12.9818 1.06809 12.7205 0.721466 12.1979C0.356207 11.6026 0.175989 10.9123 0.203705 10.2144C0.203205 9.88158 0.233263 9.54935 0.293433 9.22196C0.350246 8.90571 0.478162 8.60648 0.667522 8.34689C0.875647 8.07272 1.15229 7.85821 1.46964 7.7249C1.90711 7.55432 2.37502 7.47562 2.84423 7.49372H7.41568V3.33499Z" fill="white"/>
</svg>
