<svg xmlns="http://www.w3.org/2000/svg" width="21" height="19" viewBox="0 0 21 19" fill="none">
<path d="M17.6418 12.6531V7.78406C17.6418 5.87291 16.8826 4.04011 15.5312 2.68872C14.1799 1.33733 12.347 0.578125 10.4359 0.578125C8.5247 0.578125 6.69184 1.33733 5.34045 2.68872C3.98907 4.04011 3.22986 5.87291 3.22986 7.78406V12.6531H0.816895V14.9901H20.0549V12.6531H17.6418Z" fill="#BBCDF7"/>
<path d="M7.81299 16.043C7.96525 16.6226 8.30524 17.1355 8.77979 17.5015C9.25433 17.8674 9.83669 18.0659 10.436 18.0659C11.0353 18.0659 11.6177 17.8674 12.0922 17.5015C12.5668 17.1355 12.9067 16.6226 13.059 16.043H7.81299Z" fill="#BBCDF7"/>
</svg>