<svg xmlns="http://www.w3.org/2000/svg" width="18" height="19" viewBox="0 0 18 19" fill="none">
  <path d="M15.853 16.802L11.76 11.993C12.9591 11.0275 13.7314 9.62991 13.9108 8.10089C14.0901 6.57187 13.6622 5.03353 12.7192 3.8167C11.7761 2.59987 10.3931 1.80176 8.86772 1.59402C7.3423 1.38628 5.79626 1.78549 4.56212 2.7058C3.32798 3.62612 2.50428 4.99402 2.26823 6.51532C2.03218 8.03662 2.40262 9.5898 3.29985 10.8408C4.19708 12.0918 5.54943 12.9408 7.06608 13.2051C8.58274 13.4693 10.1425 13.1278 11.41 12.254L15.517 17.083C15.5351 17.1062 15.5576 17.1255 15.5834 17.1398C15.6091 17.154 15.6375 17.1629 15.6667 17.166C15.696 17.169 15.7256 17.166 15.7536 17.1573C15.7817 17.1486 15.8078 17.1343 15.8302 17.1153C15.8526 17.0962 15.8709 17.0728 15.8841 17.0465C15.8972 17.0202 15.9049 16.9915 15.9067 16.9621C15.9084 16.9328 15.9042 16.9034 15.8943 16.8757C15.8844 16.848 15.869 16.8226 15.849 16.801L15.853 16.802ZM8.01701 12.857C6.89884 12.8568 5.80585 12.5251 4.8762 11.9037C3.94656 11.2824 3.22205 10.3993 2.79423 9.36623C2.36642 8.33313 2.25451 7.19638 2.4727 6.09971C2.69089 5.00303 3.2294 3.99568 4.02006 3.20501C4.81073 2.41435 5.81804 1.87588 6.91472 1.65768C8.01139 1.43949 9.14817 1.55138 10.1813 1.97919C11.2144 2.407 12.0974 3.13154 12.7187 4.06118C13.3401 4.99082 13.6718 6.08382 13.672 7.20199C13.6705 8.70131 13.0741 10.1388 12.014 11.1989C10.9538 12.2591 9.51632 12.8554 8.01701 12.857Z" fill="#494984" stroke="#494984" stroke-width="3" stroke-miterlimit="10" stroke-linejoin="round"/>
</svg>