<svg xmlns="http://www.w3.org/2000/svg" width="10" height="15" viewBox="0 0 10 15" fill="none">
<path d="M5.86006 7.17299L9.32906 3.70399C9.72018 3.28889 9.93421 2.73775 9.92573 2.16748C9.91725 1.59721 9.68694 1.05268 9.28366 0.649393C8.88037 0.246107 8.33584 0.0157998 7.76557 0.00732263C7.1953 -0.00115454 6.64416 0.212866 6.22906 0.603987L1.20906 5.62398C0.799921 6.0361 0.570312 6.59327 0.570312 7.17399C0.570312 7.75471 0.799921 8.31188 1.20906 8.72399L6.22906 13.744C6.64573 14.1268 7.19416 14.3338 7.75983 14.3218C8.3255 14.3098 8.86467 14.0797 9.26474 13.6797C9.66482 13.2796 9.89488 12.7404 9.90686 12.1747C9.91885 11.6091 9.71184 11.0607 9.32906 10.644L5.86006 7.17299Z" fill="#2F2F68"/>
</svg>