<svg xmlns="http://www.w3.org/2000/svg" width="196" height="44" viewBox="0 0 196 44" fill="none">
  <path d="M195.193 21.593C195.193 27.2608 192.942 32.6964 188.934 36.7042C184.926 40.712 179.491 42.9637 173.823 42.964H21.916C16.2481 42.964 10.8123 40.7124 6.80444 36.7046C2.7966 32.6968 0.545044 27.261 0.545044 21.593C0.545044 15.9251 2.7966 10.4893 6.80444 6.48145C10.8123 2.47361 16.2481 0.222046 21.916 0.222046H173.823C179.491 0.222311 184.926 2.474 188.934 6.48181C192.942 10.4896 195.193 15.9252 195.193 21.593Z" fill="#D9E4FB"/>
  <path d="M195.406 21.806C195.406 24.6125 194.853 27.3915 193.779 29.9844C192.705 32.5772 191.131 34.9331 189.147 36.9176C187.162 38.9021 184.806 40.4763 182.213 41.5503C179.621 42.6243 176.842 43.177 174.035 43.177H22.129C16.4611 43.177 11.0253 40.9254 7.01746 36.9176C3.00962 32.9098 0.758057 27.474 0.758057 21.806C0.758057 18.9995 1.31077 16.2205 2.38477 13.6277C3.45876 11.0348 5.03298 8.67894 7.01746 6.69446C9.00194 4.70998 11.3578 3.13576 13.9507 2.06177C16.5435 0.987774 19.3225 0.435059 22.129 0.435059H174.035C176.842 0.435059 179.621 0.987774 182.213 2.06177C184.806 3.13576 187.162 4.70998 189.147 6.69446C191.131 8.67894 192.705 11.0348 193.779 13.6277C194.853 16.2205 195.406 18.9995 195.406 21.806Z" fill="white"/>
  <path d="M195.3 21.7001C195.3 24.5066 194.747 27.2854 193.673 29.8783C192.599 32.4711 191.025 34.8272 189.041 36.8116C187.056 38.7961 184.7 40.3702 182.107 41.4442C179.514 42.5182 176.736 43.071 173.929 43.071H22.022C16.354 43.071 10.9182 40.8195 6.9104 36.8116C2.90256 32.8038 0.651001 27.368 0.651001 21.7001C0.650738 18.8934 1.20335 16.1142 2.27722 13.5211C3.3511 10.928 4.92528 8.57185 6.90979 6.58716C8.8943 4.60247 11.2503 3.0281 13.8433 1.95398C16.4362 0.879861 19.2153 0.327026 22.022 0.327026H173.929C176.736 0.327026 179.515 0.879861 182.108 1.95398C184.701 3.0281 187.057 4.60247 189.041 6.58716C191.026 8.57185 192.6 10.928 193.674 13.5211C194.748 16.1142 195.3 18.8934 195.3 21.7001Z" fill="url(#paint0_linear_66_9023)"/>
  <defs>
    <linearGradient id="paint0_linear_66_9023" x1="19" y1="49.5" x2="73.5996" y2="-73.8667" gradientUnits="userSpaceOnUse">
      <stop offset="0.014" stop-color="#FCCBF3"/>
      <stop offset="0.193" stop-color="#E8CBF4"/>
      <stop offset="0.559" stop-color="#B6CCF9"/>
      <stop offset="1" stop-color="#72CDFF"/>
    </linearGradient>
  </defs>
</svg>