<?xml version="1.0" standalone="no"?>
<!DOCTYPE svg PUBLIC "-//W3C//DTD SVG 20010904//EN"
 "http://www.w3.org/TR/2001/REC-SVG-20010904/DTD/svg10.dtd">
<svg version="1.0" xmlns="http://www.w3.org/2000/svg"
 width="640.000000pt" height="640.000000pt" viewBox="0 0 640.000000 640.000000"
 preserveAspectRatio="xMidYMid meet">
<metadata>
Created by potrace 1.16, written by Peter Selinger 2001-2019
</metadata>
<g transform="translate(0.000000,640.000000) scale(0.100000,-0.100000)"
fill="#000000" stroke="none">
<path d="M2431 5254 c-136 -37 -118 -20 -998 -898 -453 -451 -823 -825 -823
-831 0 -5 375 364 833 822 670 669 842 836 885 857 165 83 353 71 505 -31 28
-19 44 -26 34 -15 -27 30 -126 79 -192 97 -73 19 -173 18 -244 -1z"/>
<path d="M2433 5235 c-127 -35 -109 -18 -997 -903 -461 -461 -835 -830 -830
-822 7 13 5 13 -9 1 -19 -15 -23 -36 -5 -25 7 4 8 3 4 -5 -4 -6 -11 -9 -16 -6
-11 7 -45 -58 -71 -134 -26 -74 -26 -208 0 -282 26 -76 60 -141 71 -134 5 3
12 0 16 -6 4 -8 3 -9 -4 -5 -21 13 -13 -10 10 -30 22 -19 23 -19 8 1 -7 11
366 -358 831 -821 798 -795 848 -842 909 -869 190 -83 396 -46 547 97 37 35
62 56 58 48 -8 -13 -7 -13 8 -1 19 15 23 36 5 25 -7 -4 -8 -3 -4 5 4 6 11 9
16 6 5 -3 21 17 35 44 54 108 69 234 40 344 -18 70 -62 160 -75 152 -5 -3 -12
0 -16 6 -4 8 -3 9 4 5 18 -11 14 10 -5 25 -15 12 -16 12 -8 -1 5 -9 0 -8 -13
4 -25 21 -31 36 -7 16 8 -7 15 -8 15 -4 0 5 -162 171 -360 369 l-360 360 1627
5 1628 5 65 23 c84 30 121 54 195 121 l60 54 -60 -59 c-33 -33 -71 -68 -85
-77 -17 -13 -14 -12 10 2 37 21 150 129 150 144 0 4 -5 5 -12 1 -7 -4 -8 -3
-4 5 4 6 12 9 17 5 5 -3 26 29 46 72 34 72 37 83 38 183 l2 106 -6 -90 -7 -90
-2 91 c-2 80 -9 120 -37 199 -6 20 -6 20 6 0 7 -10 18 -37 25 -60 7 -22 13
-31 13 -20 1 29 -67 168 -78 160 -5 -3 -13 0 -17 6 -4 8 -3 9 4 5 21 -13 13
10 -10 30 -22 19 -23 19 -8 -1 8 -11 -12 5 -45 35 -73 68 -111 91 -195 122
l-65 23 -1645 5 c-905 3 -1636 6 -1625 8 20 2 725 699 725 716 0 5 -8 2 -17
-5 -10 -7 -7 -1 6 14 27 30 41 37 20 10 -11 -15 -10 -14 9 1 23 20 31 43 10
30 -7 -4 -8 -3 -4 5 4 6 11 9 16 6 5 -3 21 17 35 44 54 108 69 234 40 344 -18
70 -62 160 -75 152 -5 -3 -12 0 -16 6 -4 8 -3 9 4 5 18 -11 14 10 -5 25 -15
12 -16 12 -8 -1 5 -9 0 -8 -13 4 -25 21 -31 36 -7 16 27 -22 16 5 -13 33 -29
28 -49 36 -36 15 5 -7 -7 0 -25 15 -109 91 -288 129 -428 92z"/>
<path d="M3043 3713 c439 -2 1155 -2 1590 0 436 1 77 2 -798 2 -875 0 -1231
-1 -792 -2z"/>
<path d="M620 2865 c0 -6 368 -378 818 -826 785 -785 820 -818 892 -853 41
-20 93 -39 115 -41 36 -5 34 -4 -12 10 -129 36 -111 20 -985 893 -456 455
-828 822 -828 817z"/>
<path d="M3037 2683 c436 -2 1150 -2 1585 0 436 1 80 2 -792 2 -872 0 -1228
-1 -793 -2z"/>
</g>
</svg>
