<svg width="39" height="38" viewBox="0 0 39 38" fill="none" xmlns="http://www.w3.org/2000/svg">
<g id="&#236;&#130;&#172;&#235;&#158;&#140;_&#236;&#149;&#132;&#236;&#157;&#180;&#236;&#189;&#152;_&#234;&#178;&#140;&#236;&#139;&#156;&#234;&#184;&#128;">
<path id="&#237;&#131;&#128;&#236;&#155;&#144; 25" d="M19.4195 38C29.6845 38 38.006 29.6785 38.006 19.4135C38.006 9.14848 29.6845 0.827026 19.4195 0.827026C9.15446 0.827026 0.833008 9.14848 0.833008 19.4135C0.833008 29.6785 9.15446 38 19.4195 38Z" fill="#D9E4FB"/>
<g id="&#234;&#183;&#184;&#235;&#163;&#185; 212">
<path id="&#237;&#131;&#128;&#236;&#155;&#144; 26" d="M19.4193 17.9406C21.6008 17.9406 23.3693 16.1721 23.3693 13.9906C23.3693 11.809 21.6008 10.0405 19.4193 10.0405C17.2377 10.0405 15.4692 11.809 15.4692 13.9906C15.4692 16.1721 17.2377 17.9406 19.4193 17.9406Z" fill="white"/>
<path id="&#236;&#130;&#172;&#234;&#176;&#129;&#237;&#152;&#149; 144" d="M13.6875 19.974H25.1518C25.6595 19.974 26.1463 20.1757 26.5053 20.5346C26.8642 20.8936 27.0659 21.3805 27.0659 21.8881V28.7866H11.7734V21.8881C11.7734 21.3805 11.9751 20.8936 12.3341 20.5346C12.693 20.1757 13.1799 19.974 13.6875 19.974Z" fill="white"/>
</g>
</g>
</svg>
