<svg width="11" height="9" viewBox="0 0 11 9" fill="none" xmlns="http://www.w3.org/2000/svg">
<path id="&#237;&#140;&#168;&#236;&#138;&#164; 2560" d="M5.31003 8.83603C5.20604 8.83673 5.10414 8.80688 5.01703 8.75009L3.65503 7.86801C2.93255e-05 5.50601 0 3.71909 0 3.04709C0.000192705 2.43113 0.187018 1.82967 0.535828 1.32199C0.884637 0.814315 1.37907 0.424185 1.95398 0.203097C2.52889 -0.0179903 3.15732 -0.059688 3.75641 0.0834683C4.3555 0.226625 4.89717 0.54798 5.31003 1.0051C5.72288 0.54798 6.26452 0.226625 6.86362 0.0834683C7.46271 -0.059688 8.09113 -0.0179903 8.66605 0.203097C9.24096 0.424185 9.73539 0.814315 10.0842 1.32199C10.433 1.82967 10.6198 2.43113 10.62 3.04709C10.62 3.71909 10.62 5.50601 6.96503 7.86801L5.60202 8.75009C5.51509 8.80648 5.41364 8.8363 5.31003 8.83603Z" fill="#BBCDF7"/>
</svg>
