<svg width="11" height="9" viewBox="0 0 11 9" fill="none" xmlns="http://www.w3.org/2000/svg">
<path d="M5.31003 8.83603C5.20604 8.83673 5.10414 8.80688 5.01703 8.75009L3.65503 7.86801C2.93255e-05 5.50601 0 3.71909 0 3.04709C0.000192705 2.43113 0.187018 1.82967 0.535828 1.32199C0.884637 0.814314 1.37907 0.424185 1.95398 0.203097C2.52889 -0.0179904 3.15732 -0.059688 3.75641 0.0834683C4.3555 0.226625 4.89717 0.54798 5.31003 1.0051C5.72288 0.54798 6.26452 0.226625 6.86362 0.0834683C7.46271 -0.059688 8.09113 -0.0179904 8.66605 0.203097C9.24096 0.424185 9.73539 0.814314 10.0842 1.32199C10.433 1.82967 10.6198 2.43113 10.62 3.04709C10.62 3.71909 10.62 5.50601 6.96503 7.86801L5.60202 8.75009C5.51509 8.80648 5.41364 8.8363 5.31003 8.83603ZM3.048 1.07602C2.52551 1.07682 2.02464 1.28481 1.65518 1.65427C1.28572 2.02373 1.07782 2.52459 1.07703 3.04709C1.07703 3.56009 1.07702 4.91908 4.24002 6.96408L5.31003 7.6561L6.38 6.96408C9.543 4.91908 9.54303 3.56409 9.54303 3.04709C9.54226 2.60073 9.39016 2.16782 9.11157 1.81906C8.83299 1.47031 8.44438 1.22628 8.00922 1.12693C7.57405 1.02757 7.11804 1.07867 6.7157 1.27194C6.31335 1.46522 5.98843 1.78922 5.79401 2.19101C5.74948 2.28129 5.68053 2.35734 5.59497 2.41037C5.50941 2.46341 5.41069 2.49134 5.31003 2.49106C5.20864 2.49119 5.10927 2.46264 5.02344 2.40866C4.93761 2.35469 4.86882 2.27745 4.82501 2.18601C4.66171 1.85375 4.40878 1.57379 4.09479 1.37766C3.78079 1.18152 3.41822 1.07702 3.048 1.07602Z" fill="#BBCDF7"/>
</svg>
