<svg width="83" height="29" viewBox="0 0 83 29" fill="none" xmlns="http://www.w3.org/2000/svg">
<g filter="url(#filter0_bd_1_24)">
<path d="M14.5 21C13.0475 21 11.6825 20.7244 10.405 20.1731C9.1275 19.6219 8.01625 18.8737 7.07125 17.9287C6.12625 16.9837 5.37812 15.8725 4.82687 14.595C4.27562 13.3175 4 11.9525 4 10.5C4 9.0475 4.27562 7.6825 4.82687 6.405C5.37812 5.1275 6.12625 4.01625 7.07125 3.07125C8.01625 2.12625 9.1275 1.37812 10.405 0.826875C11.6825 0.275625 13.0475 0 14.5 0C15.9525 0 17.3175 0.275625 18.595 0.826875C19.8725 1.37812 20.9837 2.12625 21.9287 3.07125C22.8737 4.01625 23.6219 5.1275 24.1731 6.405C24.7244 7.6825 25 9.0475 25 10.5C25 11.9525 24.7244 13.3175 24.1731 14.595C23.6219 15.8725 22.8737 16.9837 21.9287 17.9287C20.9837 18.8737 19.8725 19.6219 18.595 20.1731C17.3175 20.7244 15.9525 21 14.5 21ZM13.3713 19.3988V17.2463C12.7588 17.2463 12.2425 17.0187 11.8225 16.5637C11.4025 16.1087 11.1925 15.575 11.1925 14.9625V13.8075L5.81125 8.42625C5.72375 8.77625 5.6625 9.12187 5.6275 9.46312C5.5925 9.80437 5.575 10.15 5.575 10.5C5.575 12.775 6.31438 14.7612 7.79312 16.4587C9.27187 18.1562 11.1313 19.1363 13.3713 19.3988ZM21.0887 16.5637C21.4737 16.1437 21.8106 15.6975 22.0994 15.225C22.3881 14.7525 22.6331 14.2581 22.8344 13.7419C23.0356 13.2256 23.1844 12.6962 23.2806 12.1537C23.3769 11.6112 23.425 11.06 23.425 10.5C23.425 8.645 22.9175 6.96062 21.9025 5.44687C20.8875 3.93312 19.5312 2.82625 17.8337 2.12625V2.59875C17.8337 3.21125 17.6237 3.745 17.2037 4.2C16.7837 4.655 16.2675 4.8825 15.655 4.8825H13.3713V7.16625C13.3713 7.46375 13.2531 7.70875 13.0169 7.90125C12.7806 8.09375 12.5137 8.19 12.2162 8.19H10.0375V10.5H16.81C17.1075 10.5 17.3525 10.6137 17.545 10.8412C17.7375 11.0687 17.8337 11.3312 17.8337 11.6287V14.9625H18.9625C19.47 14.9625 19.9162 15.1112 20.3012 15.4087C20.6862 15.7062 20.9487 16.0912 21.0887 16.5637Z" fill="black"/>
<path d="M34.1304 0.209999C35.1904 0.209999 36.2704 0.219999 37.3704 0.239999C38.4904 0.239999 39.5804 0.269999 40.6404 0.33C41.7204 0.369999 42.7204 0.439999 43.6404 0.539999L43.4004 3.84H35.9004C35.3604 3.84 34.9504 3.97 34.6704 4.23C34.3904 4.49 34.2504 4.87 34.2504 5.37V21H29.6604V4.44C29.6604 3.16 30.0704 2.14 30.8904 1.38C31.7104 0.599999 32.7904 0.209999 34.1304 0.209999ZM30.2004 8.97H42.2904V12.21H30.2004V8.97Z" fill="#FD8B05"/>
<path d="M53.7866 0.299998V21H49.1966V0.299998H53.7866ZM60.0266 0.299998V3.9H42.9866V0.299998H60.0266Z" fill="#0A22F8"/>
<path d="M71.1702 0.299998C71.5502 0.299998 71.8802 0.409999 72.1602 0.629999C72.4602 0.849999 72.6602 1.14 72.7602 1.5L78.7602 21H74.0802L69.8502 5.79C69.7702 5.45 69.6902 5.11 69.6102 4.77C69.5302 4.41 69.4602 4.07 69.4002 3.75H68.5902C68.5302 4.07 68.4602 4.41 68.3802 4.77C68.3202 5.11 68.2402 5.45 68.1402 5.79L63.9102 21H59.2002L65.2302 1.5C65.3302 1.14 65.5202 0.849999 65.8002 0.629999C66.1002 0.409999 66.4402 0.299998 66.8202 0.299998H71.1702ZM74.3502 12.09V15.54H63.6102V12.09H74.3502Z" fill="black"/>
</g>
<defs>
<filter id="filter0_bd_1_24" x="0" y="-4" width="82.7602" height="33" filterUnits="userSpaceOnUse" color-interpolation-filters="sRGB">
<feFlood flood-opacity="0" result="BackgroundImageFix"/>
<feGaussianBlur in="BackgroundImageFix" stdDeviation="2"/>
<feComposite in2="SourceAlpha" operator="in" result="effect1_backgroundBlur_1_24"/>
<feColorMatrix in="SourceAlpha" type="matrix" values="0 0 0 0 0 0 0 0 0 0 0 0 0 0 0 0 0 0 127 0" result="hardAlpha"/>
<feOffset dy="4"/>
<feGaussianBlur stdDeviation="2"/>
<feComposite in2="hardAlpha" operator="out"/>
<feColorMatrix type="matrix" values="0 0 0 0 0 0 0 0 0 0 0 0 0 0 0 0 0 0 0.25 0"/>
<feBlend mode="normal" in2="effect1_backgroundBlur_1_24" result="effect2_dropShadow_1_24"/>
<feBlend mode="normal" in="SourceGraphic" in2="effect2_dropShadow_1_24" result="shape"/>
</filter>
</defs>
</svg>
