<svg width="18" height="12" viewBox="0 0 18 12" fill="none" xmlns="http://www.w3.org/2000/svg">
<path id="&#237;&#140;&#168;&#236;&#138;&#164; 6" d="M16.6828 4.20096C15.6819 3.11075 14.4655 2.24035 13.1106 1.64493C11.7556 1.04951 10.2918 0.742065 8.81183 0.742065C7.33185 0.742065 5.86801 1.04951 4.51309 1.64493C3.15817 2.24035 1.94171 3.11075 0.940826 4.20096C0.40256 4.79533 0.104492 5.56857 0.104492 6.37045C0.104492 7.17233 0.40256 7.94557 0.940826 8.53995C1.94171 9.63016 3.15817 10.5006 4.51309 11.096C5.86801 11.6914 7.33185 11.9988 8.81183 11.9988C10.2918 11.9988 11.7556 11.6914 13.1106 11.096C14.4655 10.5006 15.6819 9.63016 16.6828 8.53995C17.2211 7.94557 17.5192 7.17233 17.5192 6.37045C17.5192 5.56857 17.2211 4.79533 16.6828 4.20096ZM8.81183 9.20096C8.25132 9.20096 7.70341 9.03473 7.23737 8.72333C6.77132 8.41192 6.40807 7.96932 6.19357 7.45148C5.97907 6.93363 5.92294 6.3638 6.03229 5.81406C6.14164 5.26431 6.41155 4.75935 6.80789 4.36301C7.20423 3.96666 7.7092 3.69675 8.25894 3.5874C8.80868 3.47805 9.37852 3.53419 9.89636 3.74869C10.4142 3.96319 10.8568 4.32643 11.1682 4.79248C11.4796 5.25853 11.6458 5.80643 11.6458 6.36694C11.6458 7.11894 11.3474 7.8402 10.816 8.37231C10.2846 8.90443 9.56382 9.2039 8.81183 9.20496V9.20096ZM2.03082 5.26794C3.33016 3.92154 4.98325 2.96937 6.79984 2.52097C6.09297 2.88375 5.49977 3.43432 5.08536 4.11221C4.67095 4.79011 4.45136 5.56909 4.45074 6.36362C4.45012 7.15815 4.66847 7.93749 5.08182 8.61603C5.49517 9.29457 6.08752 9.84607 6.79382 10.21C4.97925 9.7614 3.32823 8.80954 2.03082 7.46396C1.77314 7.15688 1.6319 6.76882 1.6319 6.36795C1.6319 5.96708 1.77314 5.57902 2.03082 5.27194V5.26794ZM15.5928 7.46796C14.295 8.81302 12.6442 9.76479 10.8298 10.214C11.5361 9.85007 12.1285 9.29857 12.5418 8.62003C12.9552 7.94149 13.1736 7.16214 13.1729 6.36761C13.1723 5.57309 12.9527 4.79411 12.5383 4.11621C12.1239 3.43832 11.5307 2.88775 10.8239 2.52496C12.6404 2.97337 14.2935 3.92554 15.5928 5.27194C15.8516 5.57931 15.9934 5.9682 15.9934 6.36996C15.9934 6.77173 15.8516 7.16059 15.5928 7.46796Z" fill="#BBCDF7"/>
</svg>
