<svg width="188" height="54" viewBox="0 0 188 54" fill="none" xmlns="http://www.w3.org/2000/svg">
<path d="M5.96875 1.59375C5.96875 1.36458 6.09375 1.17708 6.34375 1.03125C6.61458 0.864583 6.89583 0.78125 7.1875 0.78125C7.4375 0.78125 7.66667 0.833333 7.875 0.9375C8.08333 1.02083 8.21875 1.17708 8.28125 1.40625C8.34375 2.09375 8.375 2.78125 8.375 3.46875C8.39583 4.15625 8.40625 4.84375 8.40625 5.53125C9.21875 5.48958 9.98958 5.4375 10.7188 5.375C11.4688 5.3125 12.1354 5.23958 12.7188 5.15625C12.9479 5.15625 13.125 5.28125 13.25 5.53125C13.3958 5.78125 13.4688 6.0625 13.4688 6.375C13.4688 6.66667 13.375 6.89583 13.1875 7.0625C13.0208 7.20833 12.7604 7.32292 12.4062 7.40625C12.0729 7.46875 11.6562 7.51042 11.1562 7.53125C10.6771 7.55208 10.125 7.57292 9.5 7.59375C10 7.94792 10.4062 8.39583 10.7188 8.9375C11.0521 9.45833 11.2188 9.98958 11.2188 10.5312C11.2188 11.0104 11.1354 11.4375 10.9688 11.8125C10.8229 12.1875 10.625 12.5208 10.375 12.8125C10.1458 13.1042 9.875 13.3542 9.5625 13.5625C9.27083 13.7708 8.98958 13.9271 8.71875 14.0312C8.71875 14.7396 8.73958 15.5104 8.78125 16.3438C8.84375 17.1562 8.90625 17.9062 8.96875 18.5938C10.7396 18.5521 12.2604 18.4062 13.5312 18.1562C13.5729 18.1562 13.6042 18.1562 13.625 18.1562C13.6667 18.1354 13.7083 18.125 13.75 18.125C14.0417 18.125 14.2708 18.2396 14.4375 18.4688C14.6042 18.6979 14.6875 18.9375 14.6875 19.1875C14.6875 19.5417 14.5312 19.8125 14.2188 20C13.9271 20.1875 13.5 20.3333 12.9375 20.4375C12.3958 20.5417 11.75 20.6146 11 20.6562C10.25 20.6979 9.4375 20.7396 8.5625 20.7812C7.6875 20.8229 6.82292 20.8542 5.96875 20.875C5.13542 20.8958 4.38542 20.9062 3.71875 20.9062C2.84375 20.9062 2.23958 20.8333 1.90625 20.6875C1.57292 20.5417 1.40625 20.2292 1.40625 19.75C1.40625 19.4167 1.52083 19.1771 1.75 19.0312C1.97917 18.8646 2.3125 18.7604 2.75 18.7188C3.20833 18.6771 3.76042 18.6667 4.40625 18.6875C5.07292 18.7083 5.83333 18.7083 6.6875 18.6875C6.64583 18.0625 6.60417 17.3333 6.5625 16.5C6.52083 15.6667 6.5 14.9375 6.5 14.3125C6.08333 14.25 5.67708 14.1354 5.28125 13.9688C4.90625 13.7812 4.5625 13.5417 4.25 13.25C3.95833 12.9375 3.71875 12.5833 3.53125 12.1875C3.34375 11.7917 3.25 11.3438 3.25 10.8438C3.25 10.2812 3.38542 9.72917 3.65625 9.1875C3.92708 8.625 4.30208 8.14583 4.78125 7.75C4.53125 7.75 4.29167 7.76042 4.0625 7.78125C3.83333 7.78125 3.60417 7.78125 3.375 7.78125C2.79167 7.78125 2.3125 7.76042 1.9375 7.71875C1.58333 7.65625 1.30208 7.58333 1.09375 7.5C0.90625 7.39583 0.770833 7.27083 0.6875 7.125C0.625 6.97917 0.59375 6.8125 0.59375 6.625C0.59375 6.375 0.677083 6.15625 0.84375 5.96875C1.01042 5.76042 1.23958 5.65625 1.53125 5.65625C1.76042 5.65625 2.01042 5.66667 2.28125 5.6875C2.57292 5.70833 2.875 5.71875 3.1875 5.71875C4.08333 5.71875 5.05208 5.6875 6.09375 5.625C6.05208 4.95833 6.02083 4.25 6 3.5C5.97917 2.72917 5.96875 2.09375 5.96875 1.59375ZM6.9375 8.625C6.4375 8.875 6.07292 9.17708 5.84375 9.53125C5.63542 9.88542 5.53125 10.3438 5.53125 10.9062C5.53125 11.3021 5.6875 11.6562 6 11.9688C6.33333 12.2812 6.72917 12.4375 7.1875 12.4375C7.25 12.4375 7.38542 12.4167 7.59375 12.375C7.80208 12.3125 8.01042 12.2188 8.21875 12.0938C8.42708 11.9479 8.61458 11.7604 8.78125 11.5312C8.94792 11.3021 9.03125 11.0208 9.03125 10.6875C9.03125 10.1042 8.82292 9.61458 8.40625 9.21875C7.98958 8.82292 7.55208 8.625 7.09375 8.625H6.9375ZM16.0312 4.15625C15.9479 3.94792 15.9062 3.79167 15.9062 3.6875C15.9062 3.35417 16.0312 3.08333 16.2812 2.875C16.5312 2.66667 16.8125 2.5625 17.125 2.5625C17.4792 2.5625 17.7812 2.71875 18.0312 3.03125C18.2812 3.34375 18.4896 3.72917 18.6562 4.1875C18.8438 4.625 18.9896 5.09375 19.0938 5.59375C19.1979 6.07292 19.2812 6.48958 19.3438 6.84375C19.4062 7.59375 19.4479 8.42708 19.4688 9.34375C19.5104 10.2604 19.5417 11.1979 19.5625 12.1562H22.125C22.8125 12.1562 23.3438 12.2188 23.7188 12.3438C24.0938 12.4688 24.2812 12.8021 24.2812 13.3438C24.2812 13.6771 24.1771 13.9167 23.9688 14.0625C23.7812 14.2083 23.5417 14.3125 23.25 14.375C22.9792 14.4167 22.6771 14.4271 22.3438 14.4062C22.0104 14.3854 21.7083 14.375 21.4375 14.375H19.5938C19.5938 15.5 19.5833 16.5833 19.5625 17.625C19.5417 18.6458 19.5104 19.5312 19.4688 20.2812C19.4479 20.6771 19.3021 20.9583 19.0312 21.125C18.7812 21.2708 18.5 21.3438 18.1875 21.3438C17.8958 21.3438 17.6354 21.2708 17.4062 21.125C17.1979 20.9792 17.0938 20.7604 17.0938 20.4688C17.0938 19.5938 17.1146 18.5729 17.1562 17.4062C17.2188 16.2396 17.25 15.0208 17.25 13.75C17.25 12.5417 17.2188 11.3646 17.1562 10.2188C17.1146 9.05208 17.0729 8.03125 17.0312 7.15625L16.625 5.625C16.5625 5.375 16.4688 5.125 16.3438 4.875C16.2396 4.625 16.1354 4.38542 16.0312 4.15625Z" fill="black"/>
<path d="M32.8125 8.28125C33.1667 8.51042 33.6042 8.78125 34.125 9.09375C34.6667 9.38542 35.1875 9.69792 35.6875 10.0312C36.1875 10.3646 36.6146 10.6979 36.9688 11.0312C37.3438 11.3646 37.5312 11.6667 37.5312 11.9375C37.5312 12.2917 37.4167 12.6042 37.1875 12.875C36.9583 13.1458 36.7083 13.2812 36.4375 13.2812C36.2708 13.2812 36.1146 13.2188 35.9688 13.0938C35.1771 12.5312 34.4479 12.0312 33.7812 11.5938C33.1146 11.1562 32.4375 10.7292 31.75 10.3125C31.5625 10.6042 31.3229 10.9479 31.0312 11.3438C30.7396 11.7188 30.4167 12.0833 30.0625 12.4375C29.7292 12.7917 29.3854 13.0938 29.0312 13.3438C28.6979 13.5938 28.3854 13.7188 28.0938 13.7188C27.7396 13.7188 27.4479 13.6042 27.2188 13.375C26.9896 13.1458 26.875 12.8854 26.875 12.5938C26.875 12.3021 26.9896 12.0729 27.2188 11.9062C28.3438 10.8854 29.2604 9.72917 29.9688 8.4375C30.6979 7.125 31.1771 5.78125 31.4062 4.40625C31.4688 4.07292 31.5833 3.84375 31.75 3.71875C31.9167 3.59375 32.1146 3.53125 32.3438 3.53125C32.7188 3.53125 33.0625 3.65625 33.375 3.90625C33.6875 4.13542 33.8438 4.36458 33.8438 4.59375C33.7604 5.09375 33.6354 5.66667 33.4688 6.3125C33.3229 6.9375 33.1042 7.59375 32.8125 8.28125ZM44.4062 2.03125C44.3854 1.98958 44.375 1.91667 44.375 1.8125C44.375 1.52083 44.4896 1.28125 44.7188 1.09375C44.9479 0.885417 45.2188 0.78125 45.5312 0.78125C45.8229 0.78125 46.1042 0.864583 46.375 1.03125C46.6458 1.17708 46.8021 1.42708 46.8438 1.78125C46.9062 2.17708 46.9583 2.65625 47 3.21875C47.0417 3.78125 47.0729 4.39583 47.0938 5.0625C47.1354 5.72917 47.1562 6.42708 47.1562 7.15625C47.1771 7.86458 47.1875 8.57292 47.1875 9.28125C47.1875 9.86458 47.1979 10.4479 47.2188 11.0312C47.2396 11.5938 47.2188 12.1146 47.1562 12.5938C47.0938 13.0521 46.9583 13.4271 46.75 13.7188C46.5625 14.0104 46.25 14.1562 45.8125 14.1562C45.5 14.1562 45.2396 14.0729 45.0312 13.9062C44.8229 13.7188 44.7188 13.4688 44.7188 13.1562C44.7188 12.7812 44.7292 12.3646 44.75 11.9062C44.7708 11.4271 44.7812 10.9167 44.7812 10.375V8.1875C44.1979 8.27083 43.5417 8.33333 42.8125 8.375C42.1042 8.39583 41.4167 8.40625 40.75 8.40625C40.2917 8.40625 39.8854 8.40625 39.5312 8.40625C39.1771 8.40625 38.875 8.36458 38.625 8.28125C38.375 8.19792 38.1771 8.07292 38.0312 7.90625C37.9062 7.71875 37.8438 7.44792 37.8438 7.09375C37.8438 6.78125 37.9688 6.5625 38.2188 6.4375C38.4688 6.3125 38.7812 6.22917 39.1562 6.1875C39.5521 6.14583 39.9688 6.13542 40.4062 6.15625C40.8438 6.17708 41.25 6.1875 41.625 6.1875C42.125 6.1875 42.625 6.1875 43.125 6.1875C43.6458 6.16667 44.1771 6.125 44.7188 6.0625C44.6771 5.25 44.625 4.5 44.5625 3.8125C44.5208 3.125 44.4688 2.53125 44.4062 2.03125ZM39.3125 17.5938C39.4792 17.4271 39.6979 17.3438 39.9688 17.3438C40.4271 17.4062 40.875 17.5729 41.3125 17.8438C41.7708 18.0938 42.1771 18.4062 42.5312 18.7812C42.8854 19.1354 43.1771 19.5312 43.4062 19.9688C43.6354 20.3854 43.75 20.8125 43.75 21.25C43.75 21.9167 43.625 22.5 43.375 23C43.1458 23.4792 42.8333 23.875 42.4375 24.1875C42.0417 24.5208 41.6042 24.7604 41.125 24.9062C40.6458 25.0729 40.1771 25.1562 39.7188 25.1562C39.2604 25.1562 38.7812 25.0729 38.2812 24.9062C37.8021 24.7604 37.3646 24.5417 36.9688 24.25C36.5729 23.9583 36.25 23.5833 36 23.125C35.75 22.6875 35.625 22.1771 35.625 21.5938C35.625 21.2188 35.7083 20.7917 35.875 20.3125C36.0625 19.8125 36.2917 19.3542 36.5625 18.9375C36.8542 18.5 37.1771 18.1354 37.5312 17.8438C37.8854 17.5521 38.25 17.4062 38.625 17.4062C38.8542 17.4062 39.0833 17.4688 39.3125 17.5938ZM39.3125 19.375C38.875 19.6875 38.5625 19.9896 38.375 20.2812C38.1875 20.5521 38.0938 20.9688 38.0938 21.5312C38.0938 21.9479 38.25 22.2917 38.5625 22.5625C38.875 22.8333 39.3438 22.9688 39.9688 22.9688C40.2604 22.9688 40.5521 22.8333 40.8438 22.5625C41.1354 22.2917 41.2812 21.9167 41.2812 21.4375C41.2812 21.1042 41.2292 20.8438 41.125 20.6562C41.0417 20.4479 40.9062 20.2812 40.7188 20.1562C40.5521 20.0104 40.3438 19.8854 40.0938 19.7812C39.8646 19.6771 39.6042 19.5417 39.3125 19.375Z" fill="black"/>
<path d="M56 11.2188C56.1667 11.0521 56.3854 10.9688 56.6562 10.9688C57.1146 11.0312 57.5625 11.1979 58 11.4688C58.4583 11.7188 58.8646 12.0312 59.2188 12.4062C59.5729 12.7604 59.8646 13.1562 60.0938 13.5938C60.3229 14.0104 60.4375 14.4375 60.4375 14.875C60.4375 15.5417 60.3125 16.125 60.0625 16.625C59.8333 17.1042 59.5208 17.5104 59.125 17.8438C58.7292 18.1562 58.2917 18.3958 57.8125 18.5625C57.3333 18.7083 56.8646 18.7812 56.4062 18.7812C55.9479 18.7812 55.4688 18.7083 54.9688 18.5625C54.4896 18.3958 54.0521 18.1667 53.6562 17.875C53.2604 17.5833 52.9375 17.2188 52.6875 16.7812C52.4375 16.3229 52.3125 15.8021 52.3125 15.2188C52.3125 14.8438 52.3958 14.4167 52.5625 13.9375C52.75 13.4375 52.9792 12.9792 53.25 12.5625C53.5417 12.125 53.8646 11.7604 54.2188 11.4688C54.5729 11.1771 54.9375 11.0312 55.3125 11.0312C55.5417 11.0312 55.7708 11.0938 56 11.2188ZM56 13C55.5625 13.3125 55.25 13.6146 55.0625 13.9062C54.875 14.1771 54.7812 14.5938 54.7812 15.1562C54.7812 15.5729 54.9375 15.9167 55.25 16.1875C55.5625 16.4583 56.0312 16.5938 56.6562 16.5938C56.9479 16.5938 57.2396 16.4583 57.5312 16.1875C57.8229 15.9167 57.9688 15.5417 57.9688 15.0625C57.9688 14.7292 57.9167 14.4688 57.8125 14.2812C57.7292 14.0729 57.5938 13.9062 57.4062 13.7812C57.2396 13.6354 57.0312 13.5104 56.7812 13.4062C56.5521 13.3021 56.2917 13.1667 56 13ZM63.7188 6.40625C63.5729 6.23958 63.5 6.04167 63.5 5.8125C63.5 5.52083 63.625 5.25 63.875 5C64.125 4.75 64.4271 4.625 64.7812 4.625C65.0938 4.625 65.3958 4.76042 65.6875 5.03125C65.9792 5.28125 66.25 5.61458 66.5 6.03125C66.75 6.42708 66.9688 6.86458 67.1562 7.34375C67.3646 7.80208 67.5312 8.23958 67.6562 8.65625C67.8021 9.13542 67.9167 9.71875 68 10.4062C68.1042 11.0729 68.1771 11.7917 68.2188 12.5625C68.2812 13.3125 68.3229 14.0938 68.3438 14.9062C68.3646 15.7188 68.375 16.5 68.375 17.25C68.375 17.7917 68.375 18.3229 68.375 18.8438C68.3958 19.3438 68.375 19.8021 68.3125 20.2188C68.25 20.6354 68.1146 20.9688 67.9062 21.2188C67.7188 21.4688 67.4271 21.5938 67.0312 21.5938C66.7188 21.5938 66.4479 21.5208 66.2188 21.375C66.0104 21.2083 65.9062 20.9688 65.9062 20.6562C65.9062 20.0521 65.9062 19.4271 65.9062 18.7812C65.9271 18.1354 65.9375 17.4792 65.9375 16.8125C65.9375 16.3958 65.9375 15.9792 65.9375 15.5625C65.9375 15.125 65.9271 14.6979 65.9062 14.2812C65.5104 14.3438 65.0833 14.4167 64.625 14.5C64.1875 14.5625 63.75 14.625 63.3125 14.6875C62.875 14.75 62.4688 14.8021 62.0938 14.8438C61.7396 14.8646 61.4479 14.875 61.2188 14.875C60.9062 14.875 60.6667 14.75 60.5 14.5C60.3333 14.2292 60.25 13.9479 60.25 13.6562C60.25 13.4479 60.3125 13.25 60.4375 13.0625C60.5833 12.875 60.8021 12.7604 61.0938 12.7188L63.3125 12.4375C63.7083 12.3958 64.1042 12.3542 64.5 12.3125C64.9167 12.25 65.3333 12.1875 65.75 12.125C65.6875 11.6042 65.625 11.1354 65.5625 10.7188C65.5 10.2812 65.3958 9.85417 65.25 9.4375C65.125 9 64.9375 8.54167 64.6875 8.0625C64.4583 7.58333 64.1354 7.03125 63.7188 6.40625ZM70.7812 6.71875C70.7188 6.57292 70.6875 6.42708 70.6875 6.28125C70.6875 5.94792 70.8021 5.67708 71.0312 5.46875C71.2812 5.23958 71.5625 5.125 71.875 5.125C72.3125 5.125 72.6667 5.33333 72.9375 5.75C73.2292 6.16667 73.4583 6.64583 73.625 7.1875C73.7917 7.70833 73.9062 8.20833 73.9688 8.6875C74.0312 9.14583 74.0729 9.42708 74.0938 9.53125C74.1979 10.1979 74.2604 10.9688 74.2812 11.8438C74.3229 12.6979 74.3438 13.5938 74.3438 14.5312C74.3438 15.4688 74.2917 16.4062 74.1875 17.3438C74.0833 18.2604 73.9688 19.1146 73.8438 19.9062C73.7396 20.3021 73.5417 20.5625 73.25 20.6875C72.9792 20.8125 72.6979 20.875 72.4062 20.875C72.1354 20.8333 71.9062 20.7396 71.7188 20.5938C71.5312 20.4479 71.4375 20.2396 71.4375 19.9688C71.4375 19.8854 71.4479 19.8229 71.4688 19.7812C71.7188 18.2604 71.8438 16.6875 71.8438 15.0625C71.8438 14.1875 71.8438 13.4062 71.8438 12.7188C71.8646 12.0312 71.8438 11.375 71.7812 10.75C71.7396 10.125 71.6354 9.5 71.4688 8.875C71.3229 8.22917 71.0938 7.51042 70.7812 6.71875Z" fill="black"/>
<path d="M83.75 12.9062C84.6458 13.6354 85.4375 14.2917 86.125 14.875C86.8333 15.4375 87.5729 16.0104 88.3438 16.5938C88.5521 16.7812 88.6562 17.0104 88.6562 17.2812C88.6562 17.5938 88.5312 17.8854 88.2812 18.1562C88.0521 18.4062 87.8021 18.5312 87.5312 18.5312C87.3438 18.5312 87.1771 18.4688 87.0312 18.3438C86.2188 17.7188 85.4688 17.1354 84.7812 16.5938C84.1146 16.0521 83.4583 15.5312 82.8125 15.0312C82.6458 15.3646 82.4896 15.6875 82.3438 16C82.2188 16.3125 82.0938 16.6146 81.9688 16.9062L81.3438 18.4688C81.2188 18.7812 81.0521 19 80.8438 19.125C80.6562 19.25 80.4583 19.3125 80.25 19.3125C79.9167 19.3125 79.6146 19.2188 79.3438 19.0312C79.0729 18.8229 78.9375 18.5729 78.9375 18.2812C78.9375 18.1562 78.9688 18.0312 79.0312 17.9062C79.2812 17.2188 79.5625 16.4896 79.875 15.7188C80.1875 14.9479 80.5104 14.1771 80.8438 13.4062C81.1979 12.6354 81.5521 11.8854 81.9062 11.1562C82.2604 10.4062 82.5938 9.71875 82.9062 9.09375C83.0104 8.86458 83.1458 8.70833 83.3125 8.625C83.4792 8.54167 83.6458 8.5 83.8125 8.5C84.1667 8.5 84.5 8.63542 84.8125 8.90625C85.1458 9.17708 85.3125 9.4375 85.3125 9.6875C85.3125 9.77083 85.3021 9.82292 85.2812 9.84375C84.7604 10.7396 84.25 11.7604 83.75 12.9062ZM93.7812 6.46875C93.6562 6.28125 93.5938 6.09375 93.5938 5.90625C93.5938 5.59375 93.7188 5.3125 93.9688 5.0625C94.2396 4.79167 94.5625 4.65625 94.9375 4.65625C95.2292 4.65625 95.5208 4.79167 95.8125 5.0625C96.1042 5.3125 96.375 5.64583 96.625 6.0625C96.875 6.45833 97.0938 6.89583 97.2812 7.375C97.4896 7.83333 97.6562 8.26042 97.7812 8.65625C97.9271 9.19792 98.0521 9.84375 98.1562 10.5938C98.2812 11.3438 98.375 12.1354 98.4375 12.9688C98.5208 13.7812 98.5729 14.6146 98.5938 15.4688C98.6354 16.3021 98.6562 17.0938 98.6562 17.8438C98.6562 18.2604 98.6562 18.6562 98.6562 19.0312C98.6562 19.4062 98.6146 19.7396 98.5312 20.0312C98.4479 20.3229 98.3125 20.5521 98.125 20.7188C97.9583 20.8854 97.6979 20.9688 97.3438 20.9688C97.0312 20.9688 96.7604 20.8958 96.5312 20.75C96.3229 20.5833 96.2188 20.3438 96.2188 20.0312V18.125C96.2188 17.2708 96.2083 16.4167 96.1875 15.5625C96.1667 14.7083 96.1146 13.875 96.0312 13.0625C95.6354 13.0833 95.1875 13.125 94.6875 13.1875C94.1875 13.2292 93.6771 13.2917 93.1562 13.375C92.6562 13.4583 92.1667 13.5521 91.6875 13.6562C91.2292 13.7396 90.8229 13.8229 90.4688 13.9062C90.4062 13.9271 90.3229 13.9375 90.2188 13.9375C89.9062 13.9375 89.6562 13.8021 89.4688 13.5312C89.3021 13.2604 89.2188 12.9792 89.2188 12.6875C89.2188 12.3125 89.4375 12.0104 89.875 11.7812C90.3125 11.5521 90.8542 11.375 91.5 11.25C92.1667 11.125 92.875 11.0417 93.625 11C94.3958 10.9375 95.0938 10.8854 95.7188 10.8438C95.6562 10.5938 95.6042 10.3438 95.5625 10.0938C95.5208 9.84375 95.4688 9.59375 95.4062 9.34375C95.3021 8.96875 95.0938 8.53125 94.7812 8.03125C94.4896 7.53125 94.1562 7.01042 93.7812 6.46875Z" fill="black"/>
<path d="M122.812 1.78125C122.979 1.61458 123.198 1.53125 123.469 1.53125C123.927 1.61458 124.385 1.79167 124.844 2.0625C125.323 2.3125 125.75 2.625 126.125 3C126.5 3.375 126.802 3.78125 127.031 4.21875C127.281 4.65625 127.406 5.09375 127.406 5.53125C127.406 6.05208 127.323 6.52083 127.156 6.9375C126.99 7.35417 126.771 7.71875 126.5 8.03125C126.229 8.34375 125.917 8.61458 125.562 8.84375C125.229 9.05208 124.885 9.19792 124.531 9.28125C124.594 9.96875 124.646 10.6667 124.688 11.375C124.75 12.0625 124.781 12.8021 124.781 13.5938C126.281 13.5312 127.74 13.4167 129.156 13.25C130.573 13.0625 131.823 12.8229 132.906 12.5312H133C133.208 12.5312 133.396 12.6667 133.562 12.9375C133.729 13.1875 133.812 13.4479 133.812 13.7188C133.812 13.9479 133.76 14.1458 133.656 14.3125C133.552 14.4792 133.365 14.5938 133.094 14.6562C132.302 14.8854 131.406 15.0833 130.406 15.25C129.427 15.3958 128.396 15.5312 127.312 15.6562C126.25 15.7604 125.146 15.8438 124 15.9062C122.875 15.9479 121.771 15.9688 120.688 15.9688C119.375 15.9688 118.125 15.9375 116.938 15.875C115.771 15.7917 114.74 15.6771 113.844 15.5312C113.573 15.4896 113.375 15.3854 113.25 15.2188C113.125 15.0312 113.062 14.8229 113.062 14.5938C113.062 14.2812 113.135 14 113.281 13.75C113.448 13.4792 113.698 13.3438 114.031 13.3438C114.885 13.4688 115.823 13.5729 116.844 13.6562C117.865 13.7188 118.938 13.75 120.062 13.75C120.438 13.75 120.812 13.75 121.188 13.75C121.583 13.7292 121.99 13.7083 122.406 13.6875C122.406 13.0833 122.375 12.375 122.312 11.5625C122.271 10.75 122.25 10.0104 122.25 9.34375C121.833 9.26042 121.427 9.125 121.031 8.9375C120.635 8.72917 120.281 8.47917 119.969 8.1875C119.656 7.875 119.406 7.52083 119.219 7.125C119.031 6.70833 118.938 6.26042 118.938 5.78125C118.938 5.46875 119.021 5.07292 119.188 4.59375C119.375 4.11458 119.615 3.65625 119.906 3.21875C120.219 2.76042 120.562 2.375 120.938 2.0625C121.312 1.75 121.708 1.59375 122.125 1.59375C122.354 1.59375 122.583 1.65625 122.812 1.78125ZM122.812 3.5625C122.375 3.85417 122.031 4.14583 121.781 4.4375C121.531 4.72917 121.406 5.15625 121.406 5.71875C121.406 6.11458 121.531 6.47917 121.781 6.8125C122.031 7.14583 122.49 7.3125 123.156 7.3125C123.698 7.3125 124.135 7.17708 124.469 6.90625C124.823 6.63542 125 6.21875 125 5.65625C125 5.32292 124.948 5.0625 124.844 4.875C124.74 4.66667 124.594 4.5 124.406 4.375C124.219 4.22917 123.99 4.10417 123.719 4C123.448 3.89583 123.146 3.75 122.812 3.5625ZM117.781 19.0938C117.781 18.7396 117.906 18.4792 118.156 18.3125C118.406 18.1458 118.688 18.0625 119 18.0625C119.396 18.0625 119.677 18.1875 119.844 18.4375C120.031 18.6875 120.146 19 120.188 19.375C120.25 19.7292 120.271 20.1042 120.25 20.5C120.25 20.8958 120.271 21.2292 120.312 21.5C120.333 21.875 120.354 22.25 120.375 22.625C120.417 22.9792 120.469 23.3438 120.531 23.7188C120.885 23.7812 121.375 23.8333 122 23.875C122.625 23.9375 123.292 23.9688 124 23.9688C124.729 23.9688 125.438 23.9479 126.125 23.9062C126.812 23.8646 127.396 23.8438 127.875 23.8438C128.167 23.8438 128.385 23.9583 128.531 24.1875C128.677 24.4167 128.75 24.6771 128.75 24.9688C128.75 25.3438 128.625 25.6146 128.375 25.7812C128.125 25.9688 127.802 26.0833 127.406 26.125C127.01 26.1875 126.573 26.2083 126.094 26.1875C125.635 26.1875 125.188 26.1875 124.75 26.1875C123.792 26.1875 122.917 26.1875 122.125 26.1875C121.354 26.1875 120.677 26.125 120.094 26C119.531 25.875 119.083 25.6667 118.75 25.375C118.417 25.0833 118.219 24.6562 118.156 24.0938L117.906 21.625C117.865 21.2292 117.833 20.8229 117.812 20.4062C117.792 19.9896 117.781 19.5521 117.781 19.0938Z" fill="black"/>
<path d="M39 28.0938C39.4167 28.0938 39.9167 28.1146 40.5 28.1562C41.1042 28.1771 41.7188 28.2083 42.3438 28.25C42.9688 28.2917 43.5833 28.3438 44.1875 28.4062C44.7917 28.4479 45.3125 28.4896 45.75 28.5312C46.4583 28.6146 46.9271 28.8438 47.1562 29.2188C47.3854 29.5729 47.5 30.0104 47.5 30.5312C47.4792 30.9271 47.4688 31.3958 47.4688 31.9375C47.4688 32.4583 47.4583 33 47.4375 33.5625C47.4375 34.125 47.4271 34.6667 47.4062 35.1875C47.3854 35.7083 47.3542 36.1562 47.3125 36.5312C47.2708 36.7604 47.125 36.9375 46.875 37.0625C46.625 37.1667 46.3542 37.2188 46.0625 37.2188C45.7917 37.2188 45.5521 37.1562 45.3438 37.0312C45.1562 36.9062 45.0625 36.6979 45.0625 36.4062C45.0625 36.0521 45.0729 35.625 45.0938 35.125C45.1146 34.6042 45.125 34.0729 45.125 33.5312V30.7188C44.7708 30.6562 44.3229 30.6042 43.7812 30.5625C43.2396 30.5208 42.6667 30.4792 42.0625 30.4375C41.4792 30.3958 40.9062 30.3646 40.3438 30.3438C39.7812 30.3229 39.3125 30.3021 38.9375 30.2812C38.6875 30.2812 38.5 30.1667 38.375 29.9375C38.25 29.7083 38.1875 29.4583 38.1875 29.1875C38.1875 28.9167 38.25 28.6667 38.375 28.4375C38.5208 28.2083 38.7292 28.0938 39 28.0938ZM32.5 38.7188C33.5208 38.8854 34.6875 39.0104 36 39.0938C37.3125 39.1562 38.6875 39.1875 40.125 39.1875C41.1667 39.1875 42.2083 39.1771 43.25 39.1562C44.3125 39.1146 45.3333 39.0729 46.3125 39.0312C47.2917 38.9688 48.2188 38.8958 49.0938 38.8125C49.9688 38.7083 50.75 38.5938 51.4375 38.4688C51.6458 38.4688 51.8438 38.5938 52.0312 38.8438C52.2188 39.0938 52.3125 39.375 52.3125 39.6875C52.3125 39.8958 52.25 40.0938 52.125 40.2812C52.0208 40.4479 51.8333 40.5521 51.5625 40.5938C50.1458 40.8646 48.4896 41.0521 46.5938 41.1562C44.7188 41.2604 42.8021 41.3125 40.8438 41.3125C39.1979 41.3125 37.6354 41.2708 36.1562 41.1875C34.6771 41.1042 33.3958 41.0104 32.3125 40.9062C31.7917 40.8438 31.5312 40.5312 31.5312 39.9688C31.5312 39.6562 31.6042 39.375 31.75 39.125C31.9167 38.8542 32.1667 38.7188 32.5 38.7188ZM38 46.7812C38 46.4479 38.1146 46.1875 38.3438 46C38.5938 45.7917 38.8958 45.6458 39.25 45.5625C39.625 45.4583 40.0104 45.3958 40.4062 45.375C40.8229 45.3542 41.1875 45.3438 41.5 45.3438H42.5938C42.8854 45.3438 43.1771 45.3333 43.4688 45.3125C43.7604 45.2917 44.0729 45.2812 44.4062 45.2812C44.9479 45.2812 45.3854 45.4271 45.7188 45.7188C46.0729 46.0104 46.2708 46.4062 46.3125 46.9062C46.3958 47.7812 46.4688 48.5938 46.5312 49.3438C46.5938 50.1146 46.625 50.9479 46.625 51.8438C46.625 52.0729 46.5729 52.3021 46.4688 52.5312C46.3646 52.7604 46.1875 52.9062 45.9375 52.9688C44.2708 53.3438 42.3229 53.5312 40.0938 53.5312C39.5312 53.5312 39.1146 53.3854 38.8438 53.0938C38.5938 52.8021 38.4167 52.4375 38.3125 52C38.2292 51.5833 38.1771 51.125 38.1562 50.625C38.1562 50.1458 38.1354 49.6979 38.0938 49.2812C38.0729 48.8646 38.0521 48.4583 38.0312 48.0625C38.0104 47.6458 38 47.2188 38 46.7812ZM40.4062 47.5625C40.4062 48.2292 40.4167 48.8646 40.4375 49.4688C40.4792 50.0938 40.5625 50.7188 40.6875 51.3438C41.25 51.3438 41.8125 51.3229 42.375 51.2812C42.9375 51.2396 43.5312 51.1771 44.1562 51.0938C44.1354 50.4479 44.1042 49.8438 44.0625 49.2812C44.0417 48.7188 44 48.1146 43.9375 47.4688C43.3333 47.5104 42.7396 47.5312 42.1562 47.5312C41.5938 47.5104 41.0104 47.5208 40.4062 47.5625Z" fill="black"/>
<path d="M62.4062 34.2812C62.7604 34.5104 63.1979 34.7812 63.7188 35.0938C64.2604 35.3854 64.7812 35.6979 65.2812 36.0312C65.7812 36.3646 66.2083 36.6979 66.5625 37.0312C66.9375 37.3646 67.125 37.6667 67.125 37.9375C67.125 38.2917 67.0104 38.6042 66.7812 38.875C66.5521 39.1458 66.3021 39.2812 66.0312 39.2812C65.8646 39.2812 65.7083 39.2188 65.5625 39.0938C64.7708 38.5312 64.0417 38.0312 63.375 37.5938C62.7083 37.1562 62.0312 36.7292 61.3438 36.3125C61.1562 36.6042 60.9167 36.9479 60.625 37.3438C60.3333 37.7188 60.0104 38.0833 59.6562 38.4375C59.3229 38.7917 58.9792 39.0938 58.625 39.3438C58.2917 39.5938 57.9792 39.7188 57.6875 39.7188C57.3333 39.7188 57.0417 39.6042 56.8125 39.375C56.5833 39.1458 56.4688 38.8854 56.4688 38.5938C56.4688 38.3021 56.5833 38.0729 56.8125 37.9062C57.9375 36.8854 58.8542 35.7292 59.5625 34.4375C60.2917 33.125 60.7708 31.7812 61 30.4062C61.0625 30.0729 61.1771 29.8438 61.3438 29.7188C61.5104 29.5938 61.7083 29.5312 61.9375 29.5312C62.3125 29.5312 62.6562 29.6562 62.9688 29.9062C63.2812 30.1354 63.4375 30.3646 63.4375 30.5938C63.3542 31.0938 63.2292 31.6667 63.0625 32.3125C62.9167 32.9375 62.6979 33.5938 62.4062 34.2812ZM74 28.0312C73.9792 27.9896 73.9688 27.9167 73.9688 27.8125C73.9688 27.5208 74.0833 27.2812 74.3125 27.0938C74.5417 26.8854 74.8125 26.7812 75.125 26.7812C75.4167 26.7812 75.6979 26.8646 75.9688 27.0312C76.2396 27.1771 76.3958 27.4271 76.4375 27.7812C76.5 28.1771 76.5521 28.6562 76.5938 29.2188C76.6354 29.7812 76.6667 30.3958 76.6875 31.0625C76.7292 31.7292 76.75 32.4271 76.75 33.1562C76.7708 33.8646 76.7812 34.5729 76.7812 35.2812C76.7812 35.8646 76.7917 36.4479 76.8125 37.0312C76.8333 37.5938 76.8125 38.1146 76.75 38.5938C76.6875 39.0521 76.5521 39.4271 76.3438 39.7188C76.1562 40.0104 75.8438 40.1562 75.4062 40.1562C75.0938 40.1562 74.8333 40.0729 74.625 39.9062C74.4167 39.7188 74.3125 39.4688 74.3125 39.1562C74.3125 38.7812 74.3229 38.3646 74.3438 37.9062C74.3646 37.4271 74.375 36.9167 74.375 36.375V34.1875C73.7917 34.2708 73.1354 34.3333 72.4062 34.375C71.6979 34.3958 71.0104 34.4062 70.3438 34.4062C69.8854 34.4062 69.4792 34.4062 69.125 34.4062C68.7708 34.4062 68.4688 34.3646 68.2188 34.2812C67.9688 34.1979 67.7708 34.0729 67.625 33.9062C67.5 33.7188 67.4375 33.4479 67.4375 33.0938C67.4375 32.7812 67.5625 32.5625 67.8125 32.4375C68.0625 32.3125 68.375 32.2292 68.75 32.1875C69.1458 32.1458 69.5625 32.1354 70 32.1562C70.4375 32.1771 70.8438 32.1875 71.2188 32.1875C71.7188 32.1875 72.2188 32.1875 72.7188 32.1875C73.2396 32.1667 73.7708 32.125 74.3125 32.0625C74.2708 31.25 74.2188 30.5 74.1562 29.8125C74.1146 29.125 74.0625 28.5312 74 28.0312ZM68.9062 43.5938C69.0729 43.4271 69.2917 43.3438 69.5625 43.3438C70.0208 43.4062 70.4688 43.5729 70.9062 43.8438C71.3646 44.0938 71.7708 44.4062 72.125 44.7812C72.4792 45.1354 72.7708 45.5312 73 45.9688C73.2292 46.3854 73.3438 46.8125 73.3438 47.25C73.3438 47.9167 73.2188 48.5 72.9688 49C72.7396 49.4792 72.4271 49.875 72.0312 50.1875C71.6354 50.5208 71.1979 50.7604 70.7188 50.9062C70.2396 51.0729 69.7708 51.1562 69.3125 51.1562C68.8542 51.1562 68.375 51.0729 67.875 50.9062C67.3958 50.7604 66.9583 50.5417 66.5625 50.25C66.1667 49.9583 65.8438 49.5833 65.5938 49.125C65.3438 48.6875 65.2188 48.1771 65.2188 47.5938C65.2188 47.2188 65.3021 46.7917 65.4688 46.3125C65.6562 45.8125 65.8854 45.3542 66.1562 44.9375C66.4479 44.5 66.7708 44.1354 67.125 43.8438C67.4792 43.5521 67.8438 43.4062 68.2188 43.4062C68.4479 43.4062 68.6771 43.4688 68.9062 43.5938ZM68.9062 45.375C68.4688 45.6875 68.1562 45.9896 67.9688 46.2812C67.7812 46.5521 67.6875 46.9688 67.6875 47.5312C67.6875 47.9479 67.8438 48.2917 68.1562 48.5625C68.4688 48.8333 68.9375 48.9688 69.5625 48.9688C69.8542 48.9688 70.1458 48.8333 70.4375 48.5625C70.7292 48.2917 70.875 47.9167 70.875 47.4375C70.875 47.1042 70.8229 46.8438 70.7188 46.6562C70.6354 46.4479 70.5 46.2812 70.3125 46.1562C70.1458 46.0104 69.9375 45.8854 69.6875 45.7812C69.4583 45.6771 69.1979 45.5417 68.9062 45.375Z" fill="black"/>
<path d="M85.5938 37.2188C85.7604 37.0521 85.9792 36.9688 86.25 36.9688C86.7083 37.0312 87.1562 37.1979 87.5938 37.4688C88.0521 37.7188 88.4583 38.0312 88.8125 38.4062C89.1667 38.7604 89.4583 39.1562 89.6875 39.5938C89.9167 40.0104 90.0312 40.4375 90.0312 40.875C90.0312 41.5417 89.9062 42.125 89.6562 42.625C89.4271 43.1042 89.1146 43.5104 88.7188 43.8438C88.3229 44.1562 87.8854 44.3958 87.4062 44.5625C86.9271 44.7083 86.4583 44.7812 86 44.7812C85.5417 44.7812 85.0625 44.7083 84.5625 44.5625C84.0833 44.3958 83.6458 44.1667 83.25 43.875C82.8542 43.5833 82.5312 43.2188 82.2812 42.7812C82.0312 42.3229 81.9062 41.8021 81.9062 41.2188C81.9062 40.8438 81.9896 40.4167 82.1562 39.9375C82.3438 39.4375 82.5729 38.9792 82.8438 38.5625C83.1354 38.125 83.4583 37.7604 83.8125 37.4688C84.1667 37.1771 84.5312 37.0312 84.9062 37.0312C85.1354 37.0312 85.3646 37.0938 85.5938 37.2188ZM85.5938 39C85.1562 39.3125 84.8438 39.6146 84.6562 39.9062C84.4688 40.1771 84.375 40.5938 84.375 41.1562C84.375 41.5729 84.5312 41.9167 84.8438 42.1875C85.1562 42.4583 85.625 42.5938 86.25 42.5938C86.5417 42.5938 86.8333 42.4583 87.125 42.1875C87.4167 41.9167 87.5625 41.5417 87.5625 41.0625C87.5625 40.7292 87.5104 40.4688 87.4062 40.2812C87.3229 40.0729 87.1875 39.9062 87 39.7812C86.8333 39.6354 86.625 39.5104 86.375 39.4062C86.1458 39.3021 85.8854 39.1667 85.5938 39ZM93.3125 32.4062C93.1667 32.2396 93.0938 32.0417 93.0938 31.8125C93.0938 31.5208 93.2188 31.25 93.4688 31C93.7188 30.75 94.0208 30.625 94.375 30.625C94.6875 30.625 94.9896 30.7604 95.2812 31.0312C95.5729 31.2812 95.8438 31.6146 96.0938 32.0312C96.3438 32.4271 96.5625 32.8646 96.75 33.3438C96.9583 33.8021 97.125 34.2396 97.25 34.6562C97.3958 35.1354 97.5104 35.7188 97.5938 36.4062C97.6979 37.0729 97.7708 37.7917 97.8125 38.5625C97.875 39.3125 97.9167 40.0938 97.9375 40.9062C97.9583 41.7188 97.9688 42.5 97.9688 43.25C97.9688 43.7917 97.9688 44.3229 97.9688 44.8438C97.9896 45.3438 97.9688 45.8021 97.9062 46.2188C97.8438 46.6354 97.7083 46.9688 97.5 47.2188C97.3125 47.4688 97.0208 47.5938 96.625 47.5938C96.3125 47.5938 96.0417 47.5208 95.8125 47.375C95.6042 47.2083 95.5 46.9688 95.5 46.6562C95.5 46.0521 95.5 45.4271 95.5 44.7812C95.5208 44.1354 95.5312 43.4792 95.5312 42.8125C95.5312 42.3958 95.5312 41.9792 95.5312 41.5625C95.5312 41.125 95.5208 40.6979 95.5 40.2812C95.1042 40.3438 94.6771 40.4167 94.2188 40.5C93.7812 40.5625 93.3438 40.625 92.9062 40.6875C92.4688 40.75 92.0625 40.8021 91.6875 40.8438C91.3333 40.8646 91.0417 40.875 90.8125 40.875C90.5 40.875 90.2604 40.75 90.0938 40.5C89.9271 40.2292 89.8438 39.9479 89.8438 39.6562C89.8438 39.4479 89.9062 39.25 90.0312 39.0625C90.1771 38.875 90.3958 38.7604 90.6875 38.7188L92.9062 38.4375C93.3021 38.3958 93.6979 38.3542 94.0938 38.3125C94.5104 38.25 94.9271 38.1875 95.3438 38.125C95.2812 37.6042 95.2188 37.1354 95.1562 36.7188C95.0938 36.2812 94.9896 35.8542 94.8438 35.4375C94.7188 35 94.5312 34.5417 94.2812 34.0625C94.0521 33.5833 93.7292 33.0312 93.3125 32.4062ZM100.375 32.7188C100.312 32.5729 100.281 32.4271 100.281 32.2812C100.281 31.9479 100.396 31.6771 100.625 31.4688C100.875 31.2396 101.156 31.125 101.469 31.125C101.906 31.125 102.26 31.3333 102.531 31.75C102.823 32.1667 103.052 32.6458 103.219 33.1875C103.385 33.7083 103.5 34.2083 103.562 34.6875C103.625 35.1458 103.667 35.4271 103.688 35.5312C103.792 36.1979 103.854 36.9688 103.875 37.8438C103.917 38.6979 103.938 39.5938 103.938 40.5312C103.938 41.4688 103.885 42.4062 103.781 43.3438C103.677 44.2604 103.562 45.1146 103.438 45.9062C103.333 46.3021 103.135 46.5625 102.844 46.6875C102.573 46.8125 102.292 46.875 102 46.875C101.729 46.8333 101.5 46.7396 101.312 46.5938C101.125 46.4479 101.031 46.2396 101.031 45.9688C101.031 45.8854 101.042 45.8229 101.062 45.7812C101.312 44.2604 101.438 42.6875 101.438 41.0625C101.438 40.1875 101.438 39.4062 101.438 38.7188C101.458 38.0312 101.438 37.375 101.375 36.75C101.333 36.125 101.229 35.5 101.062 34.875C100.917 34.2292 100.688 33.5104 100.375 32.7188Z" fill="black"/>
<path d="M113.344 38.9062C114.24 39.6354 115.031 40.2917 115.719 40.875C116.427 41.4375 117.167 42.0104 117.938 42.5938C118.146 42.7812 118.25 43.0104 118.25 43.2812C118.25 43.5938 118.125 43.8854 117.875 44.1562C117.646 44.4062 117.396 44.5312 117.125 44.5312C116.938 44.5312 116.771 44.4688 116.625 44.3438C115.812 43.7188 115.062 43.1354 114.375 42.5938C113.708 42.0521 113.052 41.5312 112.406 41.0312C112.24 41.3646 112.083 41.6875 111.938 42C111.812 42.3125 111.688 42.6146 111.562 42.9062L110.938 44.4688C110.812 44.7812 110.646 45 110.438 45.125C110.25 45.25 110.052 45.3125 109.844 45.3125C109.51 45.3125 109.208 45.2188 108.938 45.0312C108.667 44.8229 108.531 44.5729 108.531 44.2812C108.531 44.1562 108.562 44.0312 108.625 43.9062C108.875 43.2188 109.156 42.4896 109.469 41.7188C109.781 40.9479 110.104 40.1771 110.438 39.4062C110.792 38.6354 111.146 37.8854 111.5 37.1562C111.854 36.4062 112.188 35.7188 112.5 35.0938C112.604 34.8646 112.74 34.7083 112.906 34.625C113.073 34.5417 113.24 34.5 113.406 34.5C113.76 34.5 114.094 34.6354 114.406 34.9062C114.74 35.1771 114.906 35.4375 114.906 35.6875C114.906 35.7708 114.896 35.8229 114.875 35.8438C114.354 36.7396 113.844 37.7604 113.344 38.9062ZM123.375 32.4688C123.25 32.2812 123.188 32.0938 123.188 31.9062C123.188 31.5938 123.312 31.3125 123.562 31.0625C123.833 30.7917 124.156 30.6562 124.531 30.6562C124.823 30.6562 125.115 30.7917 125.406 31.0625C125.698 31.3125 125.969 31.6458 126.219 32.0625C126.469 32.4583 126.688 32.8958 126.875 33.375C127.083 33.8333 127.25 34.2604 127.375 34.6562C127.521 35.1979 127.646 35.8438 127.75 36.5938C127.875 37.3438 127.969 38.1354 128.031 38.9688C128.115 39.7812 128.167 40.6146 128.188 41.4688C128.229 42.3021 128.25 43.0938 128.25 43.8438C128.25 44.2604 128.25 44.6562 128.25 45.0312C128.25 45.4062 128.208 45.7396 128.125 46.0312C128.042 46.3229 127.906 46.5521 127.719 46.7188C127.552 46.8854 127.292 46.9688 126.938 46.9688C126.625 46.9688 126.354 46.8958 126.125 46.75C125.917 46.5833 125.812 46.3438 125.812 46.0312V44.125C125.812 43.2708 125.802 42.4167 125.781 41.5625C125.76 40.7083 125.708 39.875 125.625 39.0625C125.229 39.0833 124.781 39.125 124.281 39.1875C123.781 39.2292 123.271 39.2917 122.75 39.375C122.25 39.4583 121.76 39.5521 121.281 39.6562C120.823 39.7396 120.417 39.8229 120.062 39.9062C120 39.9271 119.917 39.9375 119.812 39.9375C119.5 39.9375 119.25 39.8021 119.062 39.5312C118.896 39.2604 118.812 38.9792 118.812 38.6875C118.812 38.3125 119.031 38.0104 119.469 37.7812C119.906 37.5521 120.448 37.375 121.094 37.25C121.76 37.125 122.469 37.0417 123.219 37C123.99 36.9375 124.688 36.8854 125.312 36.8438C125.25 36.5938 125.198 36.3438 125.156 36.0938C125.115 35.8438 125.062 35.5938 125 35.3438C124.896 34.9688 124.688 34.5312 124.375 34.0312C124.083 33.5312 123.75 33.0104 123.375 32.4688Z" fill="black"/>
<path d="M152.406 27.7812C152.573 27.6146 152.792 27.5312 153.062 27.5312C153.521 27.6146 153.979 27.7917 154.438 28.0625C154.917 28.3125 155.344 28.625 155.719 29C156.094 29.375 156.396 29.7812 156.625 30.2188C156.875 30.6562 157 31.0938 157 31.5312C157 32.0521 156.917 32.5208 156.75 32.9375C156.583 33.3542 156.365 33.7188 156.094 34.0312C155.823 34.3438 155.51 34.6146 155.156 34.8438C154.823 35.0521 154.479 35.1979 154.125 35.2812C154.188 35.9688 154.24 36.6667 154.281 37.375C154.344 38.0625 154.375 38.8021 154.375 39.5938C155.875 39.5312 157.333 39.4167 158.75 39.25C160.167 39.0625 161.417 38.8229 162.5 38.5312H162.594C162.802 38.5312 162.99 38.6667 163.156 38.9375C163.323 39.1875 163.406 39.4479 163.406 39.7188C163.406 39.9479 163.354 40.1458 163.25 40.3125C163.146 40.4792 162.958 40.5938 162.688 40.6562C161.896 40.8854 161 41.0833 160 41.25C159.021 41.3958 157.99 41.5312 156.906 41.6562C155.844 41.7604 154.74 41.8438 153.594 41.9062C152.469 41.9479 151.365 41.9688 150.281 41.9688C148.969 41.9688 147.719 41.9375 146.531 41.875C145.365 41.7917 144.333 41.6771 143.438 41.5312C143.167 41.4896 142.969 41.3854 142.844 41.2188C142.719 41.0312 142.656 40.8229 142.656 40.5938C142.656 40.2812 142.729 40 142.875 39.75C143.042 39.4792 143.292 39.3438 143.625 39.3438C144.479 39.4688 145.417 39.5729 146.438 39.6562C147.458 39.7188 148.531 39.75 149.656 39.75C150.031 39.75 150.406 39.75 150.781 39.75C151.177 39.7292 151.583 39.7083 152 39.6875C152 39.0833 151.969 38.375 151.906 37.5625C151.865 36.75 151.844 36.0104 151.844 35.3438C151.427 35.2604 151.021 35.125 150.625 34.9375C150.229 34.7292 149.875 34.4792 149.562 34.1875C149.25 33.875 149 33.5208 148.812 33.125C148.625 32.7083 148.531 32.2604 148.531 31.7812C148.531 31.4688 148.615 31.0729 148.781 30.5938C148.969 30.1146 149.208 29.6562 149.5 29.2188C149.812 28.7604 150.156 28.375 150.531 28.0625C150.906 27.75 151.302 27.5938 151.719 27.5938C151.948 27.5938 152.177 27.6562 152.406 27.7812ZM152.406 29.5625C151.969 29.8542 151.625 30.1458 151.375 30.4375C151.125 30.7292 151 31.1562 151 31.7188C151 32.1146 151.125 32.4792 151.375 32.8125C151.625 33.1458 152.083 33.3125 152.75 33.3125C153.292 33.3125 153.729 33.1771 154.062 32.9062C154.417 32.6354 154.594 32.2188 154.594 31.6562C154.594 31.3229 154.542 31.0625 154.438 30.875C154.333 30.6667 154.188 30.5 154 30.375C153.812 30.2292 153.583 30.1042 153.312 30C153.042 29.8958 152.74 29.75 152.406 29.5625ZM147.375 45.0938C147.375 44.7396 147.5 44.4792 147.75 44.3125C148 44.1458 148.281 44.0625 148.594 44.0625C148.99 44.0625 149.271 44.1875 149.438 44.4375C149.625 44.6875 149.74 45 149.781 45.375C149.844 45.7292 149.865 46.1042 149.844 46.5C149.844 46.8958 149.865 47.2292 149.906 47.5C149.927 47.875 149.948 48.25 149.969 48.625C150.01 48.9792 150.062 49.3438 150.125 49.7188C150.479 49.7812 150.969 49.8333 151.594 49.875C152.219 49.9375 152.885 49.9688 153.594 49.9688C154.323 49.9688 155.031 49.9479 155.719 49.9062C156.406 49.8646 156.99 49.8438 157.469 49.8438C157.76 49.8438 157.979 49.9583 158.125 50.1875C158.271 50.4167 158.344 50.6771 158.344 50.9688C158.344 51.3438 158.219 51.6146 157.969 51.7812C157.719 51.9688 157.396 52.0833 157 52.125C156.604 52.1875 156.167 52.2083 155.688 52.1875C155.229 52.1875 154.781 52.1875 154.344 52.1875C153.385 52.1875 152.51 52.1875 151.719 52.1875C150.948 52.1875 150.271 52.125 149.688 52C149.125 51.875 148.677 51.6667 148.344 51.375C148.01 51.0833 147.812 50.6562 147.75 50.0938L147.5 47.625C147.458 47.2292 147.427 46.8229 147.406 46.4062C147.385 45.9896 147.375 45.5521 147.375 45.0938Z" fill="black"/>
<path d="M149.715 25H145.511V3.99414H160.218V8.19824H149.715V12.4023H156.014V16.6064H149.715V25Z" fill="#FD8B05"/>
<path d="M181.234 52H176.766V34.0781H170.031V29.5938H187.953V34.0781H181.234V52Z" fill="#0A22F8"/>
</svg>
