<svg width="189" height="61" viewBox="0 0 189 61" fill="none" xmlns="http://www.w3.org/2000/svg">
<path d="M3.03125 10.5938C3.03125 10.3229 3.0625 10.0208 3.125 9.6875C3.1875 9.33333 3.28125 8.98958 3.40625 8.65625C3.53125 8.30208 3.6875 7.97917 3.875 7.6875C4.0625 7.39583 4.28125 7.15625 4.53125 6.96875L1.59375 6.59375L1.90625 4.53125L7.90625 5.15625L8.28125 0.78125L10.4688 0.96875L10.1562 5.59375L15.2812 6.21875L15.0312 8.15625L12.5312 7.90625C12.7812 8.28125 12.9583 8.71875 13.0625 9.21875C13.1667 9.69792 13.2188 10.1562 13.2188 10.5938C13.1771 12.2188 12.8021 13.5 12.0938 14.4375C11.4062 15.3542 10.4688 15.9062 9.28125 16.0938L9.46875 20.0938H15.1562V22.3438H0.53125V19.8438H7.28125L7.1875 16.0938C6.35417 15.9896 5.66667 15.7708 5.125 15.4375C4.58333 15.0833 4.15625 14.6771 3.84375 14.2188C3.53125 13.7604 3.3125 13.2708 3.1875 12.75C3.0625 12.2083 3 11.6875 3 11.1875C3 11.0833 3 10.9896 3 10.9062C3 10.8021 3.01042 10.6979 3.03125 10.5938ZM5.21875 10.5938C5.19792 10.6979 5.1875 10.7917 5.1875 10.875C5.1875 10.9583 5.1875 11.0417 5.1875 11.125C5.1875 12.125 5.45833 12.875 6 13.375C6.5625 13.8542 7.35417 14.0938 8.375 14.0938C9.22917 14.0938 9.88542 13.7708 10.3438 13.125C10.8021 12.4792 11.0312 11.6354 11.0312 10.5938C11.0312 9.53125 10.7812 8.72917 10.2812 8.1875C9.80208 7.625 9.10417 7.34375 8.1875 7.34375C7.41667 7.34375 6.75 7.59375 6.1875 8.09375C5.64583 8.59375 5.32292 9.42708 5.21875 10.5938ZM17.8438 24.2188V2.21875H20.2812V11.7812H24.1562V13.8438H20.1562V24.2188H17.8438Z" fill="black"/>
<path d="M26.1562 16.7188L31.4062 8.21875V2.53125L33.2812 2.40625V7.90625L40.1562 14.6562L39.0312 16.2812L32.7812 10.2188L27.9062 17.8438L26.1562 16.7188ZM47.2812 1.59375V17.8438L45.2812 18.0312V8.90625H37.7812V6.90625H45.1562V1.65625L47.2812 1.59375ZM45.0938 24.4688C45.0938 23.6979 44.7292 23.0521 44 22.5312C43.2917 21.9896 42.3021 21.7188 41.0312 21.7188C39.7188 21.7188 38.7083 21.9896 38 22.5312C37.3125 23.0521 36.9688 23.6979 36.9688 24.4688C36.9688 25.2604 37.3125 25.9271 38 26.4688C38.7083 27.0104 39.7188 27.2812 41.0312 27.2812C42.3021 27.2812 43.2917 27.0104 44 26.4688C44.7292 25.9271 45.0938 25.2604 45.0938 24.4688ZM34.7812 24.4688C34.7812 23.8438 34.9062 23.25 35.1562 22.6875C35.4271 22.125 35.8229 21.6354 36.3438 21.2188C36.8854 20.7812 37.5417 20.4479 38.3125 20.2188C39.0833 19.9688 39.9896 19.8438 41.0312 19.8438C42.0521 19.8438 42.9479 19.9688 43.7188 20.2188C44.5104 20.4479 45.1667 20.7812 45.6875 21.2188C46.2292 21.6354 46.625 22.125 46.875 22.6875C47.1458 23.25 47.2812 23.8438 47.2812 24.4688C47.2812 25.1354 47.1458 25.75 46.875 26.3125C46.625 26.875 46.2292 27.3646 45.6875 27.7812C45.1667 28.2188 44.5104 28.5521 43.7188 28.7812C42.9479 29.0312 42.0521 29.1562 41.0312 29.1562C39.9896 29.1562 39.0833 29.0312 38.3125 28.7812C37.5417 28.5521 36.8854 28.2188 36.3438 27.7812C35.8229 27.3646 35.4271 26.875 35.1562 26.3125C34.9062 25.75 34.7812 25.1354 34.7812 24.4688Z" fill="black"/>
<path d="M54.0938 12.1562C54.0938 12.8854 54.1875 13.5417 54.375 14.125C54.5833 14.7083 54.8438 15.2188 55.1562 15.6562C55.4688 16.0729 55.8333 16.3958 56.25 16.625C56.6667 16.8542 57.1146 16.9688 57.5938 16.9688C58.5938 16.9688 59.4271 16.5417 60.0938 15.6875C60.7604 14.8333 61.0938 13.6562 61.0938 12.1562C61.0938 11.5729 61.0208 10.9896 60.875 10.4062C60.75 9.82292 60.5417 9.30208 60.25 8.84375C59.9583 8.36458 59.5833 7.98958 59.125 7.71875C58.6667 7.42708 58.125 7.28125 57.5 7.28125C56.9375 7.28125 56.4375 7.41667 56 7.6875C55.5833 7.9375 55.2292 8.28125 54.9375 8.71875C54.6667 9.15625 54.4583 9.67708 54.3125 10.2812C54.1667 10.8646 54.0938 11.4896 54.0938 12.1562ZM52.0312 12.1562C52.0312 11.4062 52.125 10.625 52.3125 9.8125C52.5208 9 52.8438 8.26042 53.2812 7.59375C53.7188 6.90625 54.2917 6.35417 55 5.9375C55.7083 5.5 56.5729 5.28125 57.5938 5.28125C58.4062 5.30208 59.1146 5.46875 59.7188 5.78125C60.3438 6.07292 60.875 6.46875 61.3125 6.96875C61.7708 7.46875 62.1354 8.04167 62.4062 8.6875C62.6771 9.3125 62.875 9.95833 63 10.625L67.2188 10.6562V3.59375H69.2812V21.5938L67.3438 21.7188V12.7188L63.1562 12.6875C63.1146 13.5417 62.9688 14.3542 62.7188 15.125C62.4688 15.8958 62.1146 16.5729 61.6562 17.1562C61.1979 17.7396 60.625 18.2083 59.9375 18.5625C59.2708 18.9167 58.4896 19.0938 57.5938 19.0938C56.5938 19.0938 55.7396 18.875 55.0312 18.4375C54.3229 18 53.7396 17.4479 53.2812 16.7812C52.8438 16.1146 52.5208 15.375 52.3125 14.5625C52.125 13.7292 52.0312 12.9271 52.0312 12.1562ZM72.6562 22.5312V2.90625H74.7812V22.3438L72.6562 22.5312Z" fill="black"/>
<path d="M78.2188 20.2812L84.2188 12.5312V5.09375H86.7812V12.4688L92.8438 20.0312L91.5938 21.5938L85.3438 14.7188L79.7812 21.9062L78.2188 20.2812ZM100.031 24.7812H98.3438V13.2812H89.4688V11.2188H98.0938V3.46875H100.031V24.7812Z" fill="black"/>
<path d="M117.406 7.28125C117.406 6.46875 117.562 5.75 117.875 5.125C118.208 4.5 118.656 3.97917 119.219 3.5625C119.781 3.125 120.427 2.80208 121.156 2.59375C121.906 2.38542 122.698 2.28125 123.531 2.28125C124.406 2.28125 125.219 2.41667 125.969 2.6875C126.719 2.9375 127.365 3.29167 127.906 3.75C128.448 4.1875 128.875 4.70833 129.188 5.3125C129.5 5.91667 129.656 6.57292 129.656 7.28125C129.656 8.03125 129.51 8.69792 129.219 9.28125C128.948 9.84375 128.583 10.3229 128.125 10.7188C127.688 11.1146 127.177 11.4271 126.594 11.6562C126.01 11.8854 125.417 12.0417 124.812 12.125L125.031 16.0312H134.594V18.2188H112.719V15.8438H122.781L122.625 12.1875C121.062 12.0417 119.802 11.5312 118.844 10.6562C117.885 9.78125 117.406 8.65625 117.406 7.28125ZM127.656 7.28125C127.656 6.90625 127.562 6.53125 127.375 6.15625C127.188 5.78125 126.917 5.44792 126.562 5.15625C126.229 4.84375 125.823 4.60417 125.344 4.4375C124.885 4.25 124.365 4.15625 123.781 4.15625C123.031 4.15625 122.375 4.25 121.812 4.4375C121.271 4.60417 120.823 4.83333 120.469 5.125C120.115 5.41667 119.844 5.73958 119.656 6.09375C119.49 6.44792 119.406 6.80208 119.406 7.15625C119.406 7.69792 119.521 8.16667 119.75 8.5625C119.979 8.95833 120.281 9.28125 120.656 9.53125C121.052 9.78125 121.51 9.96875 122.031 10.0938C122.552 10.2188 123.094 10.2812 123.656 10.2812C124.177 10.2604 124.677 10.1771 125.156 10.0312C125.635 9.88542 126.062 9.6875 126.438 9.4375C126.812 9.16667 127.104 8.85417 127.312 8.5C127.542 8.125 127.656 7.71875 127.656 7.28125ZM118.031 28.5938L116.656 27.5312V20.4688H118.594V26.4688L132.781 26.7812C132.781 27.1979 132.781 27.5208 132.781 27.75C132.802 28 132.812 28.1875 132.812 28.3125C132.812 28.4375 132.812 28.5312 132.812 28.5938C132.833 28.6562 132.844 28.7188 132.844 28.7812L118.031 28.5938Z" fill="black"/>
<path d="M48.1875 43.4062H46.1875V35.2188H35.75L36 32.8438H46.9375L48.25 34.4688L48.1875 43.4062ZM53.0625 48.2188H31.0625L31.1875 46.4688H53L53.0625 48.2188ZM34.5625 51.5938H50.5625V60.8438H35.8125L34.9375 60.0312L34.5625 51.5938ZM36.875 53.5938V59.0938H48.875V53.5938H36.875Z" fill="black"/>
<path d="M55.75 47.7188L61 39.2188V33.5312L62.875 33.4062V38.9062L69.75 45.6562L68.625 47.2812L62.375 41.2188L57.5 48.8438L55.75 47.7188ZM76.875 32.5938V48.8438L74.875 49.0312V39.9062H67.375V37.9062H74.75V32.6562L76.875 32.5938ZM74.6875 55.4688C74.6875 54.6979 74.3229 54.0521 73.5938 53.5312C72.8854 52.9896 71.8958 52.7188 70.625 52.7188C69.3125 52.7188 68.3021 52.9896 67.5938 53.5312C66.9062 54.0521 66.5625 54.6979 66.5625 55.4688C66.5625 56.2604 66.9062 56.9271 67.5938 57.4688C68.3021 58.0104 69.3125 58.2812 70.625 58.2812C71.8958 58.2812 72.8854 58.0104 73.5938 57.4688C74.3229 56.9271 74.6875 56.2604 74.6875 55.4688ZM64.375 55.4688C64.375 54.8438 64.5 54.25 64.75 53.6875C65.0208 53.125 65.4167 52.6354 65.9375 52.2188C66.4792 51.7812 67.1354 51.4479 67.9062 51.2188C68.6771 50.9688 69.5833 50.8438 70.625 50.8438C71.6458 50.8438 72.5417 50.9688 73.3125 51.2188C74.1042 51.4479 74.7604 51.7812 75.2812 52.2188C75.8229 52.6354 76.2188 53.125 76.4688 53.6875C76.7396 54.25 76.875 54.8438 76.875 55.4688C76.875 56.1354 76.7396 56.75 76.4688 57.3125C76.2188 57.875 75.8229 58.3646 75.2812 58.7812C74.7604 59.2188 74.1042 59.5521 73.3125 59.7812C72.5417 60.0312 71.6458 60.1562 70.625 60.1562C69.5833 60.1562 68.6771 60.0312 67.9062 59.7812C67.1354 59.5521 66.4792 59.2188 65.9375 58.7812C65.4167 58.3646 65.0208 57.875 64.75 57.3125C64.5 56.75 64.375 56.1354 64.375 55.4688Z" fill="black"/>
<path d="M83.6875 43.1562C83.6875 43.8854 83.7812 44.5417 83.9688 45.125C84.1771 45.7083 84.4375 46.2188 84.75 46.6562C85.0625 47.0729 85.4271 47.3958 85.8438 47.625C86.2604 47.8542 86.7083 47.9688 87.1875 47.9688C88.1875 47.9688 89.0208 47.5417 89.6875 46.6875C90.3542 45.8333 90.6875 44.6562 90.6875 43.1562C90.6875 42.5729 90.6146 41.9896 90.4688 41.4062C90.3438 40.8229 90.1354 40.3021 89.8438 39.8438C89.5521 39.3646 89.1771 38.9896 88.7188 38.7188C88.2604 38.4271 87.7188 38.2812 87.0938 38.2812C86.5312 38.2812 86.0312 38.4167 85.5938 38.6875C85.1771 38.9375 84.8229 39.2812 84.5312 39.7188C84.2604 40.1562 84.0521 40.6771 83.9062 41.2812C83.7604 41.8646 83.6875 42.4896 83.6875 43.1562ZM81.625 43.1562C81.625 42.4062 81.7188 41.625 81.9062 40.8125C82.1146 40 82.4375 39.2604 82.875 38.5938C83.3125 37.9062 83.8854 37.3542 84.5938 36.9375C85.3021 36.5 86.1667 36.2812 87.1875 36.2812C88 36.3021 88.7083 36.4688 89.3125 36.7812C89.9375 37.0729 90.4688 37.4688 90.9062 37.9688C91.3646 38.4688 91.7292 39.0417 92 39.6875C92.2708 40.3125 92.4688 40.9583 92.5938 41.625L96.8125 41.6562V34.5938H98.875V52.5938L96.9375 52.7188V43.7188L92.75 43.6875C92.7083 44.5417 92.5625 45.3542 92.3125 46.125C92.0625 46.8958 91.7083 47.5729 91.25 48.1562C90.7917 48.7396 90.2188 49.2083 89.5312 49.5625C88.8646 49.9167 88.0833 50.0938 87.1875 50.0938C86.1875 50.0938 85.3333 49.875 84.625 49.4375C83.9167 49 83.3333 48.4479 82.875 47.7812C82.4375 47.1146 82.1146 46.375 81.9062 45.5625C81.7188 44.7292 81.625 43.9271 81.625 43.1562ZM102.25 53.5312V33.9062H104.375V53.3438L102.25 53.5312Z" fill="black"/>
<path d="M107.812 51.2812L113.812 43.5312V36.0938H116.375V43.4688L122.438 51.0312L121.188 52.5938L114.938 45.7188L109.375 52.9062L107.812 51.2812ZM129.625 55.7812H127.938V44.2812H119.062V42.2188H127.688V34.4688H129.625V55.7812Z" fill="black"/>
<path d="M147 38.2812C147 37.4688 147.156 36.75 147.469 36.125C147.802 35.5 148.25 34.9792 148.812 34.5625C149.375 34.125 150.021 33.8021 150.75 33.5938C151.5 33.3854 152.292 33.2812 153.125 33.2812C154 33.2812 154.812 33.4167 155.562 33.6875C156.312 33.9375 156.958 34.2917 157.5 34.75C158.042 35.1875 158.469 35.7083 158.781 36.3125C159.094 36.9167 159.25 37.5729 159.25 38.2812C159.25 39.0312 159.104 39.6979 158.812 40.2812C158.542 40.8438 158.177 41.3229 157.719 41.7188C157.281 42.1146 156.771 42.4271 156.188 42.6562C155.604 42.8854 155.01 43.0417 154.406 43.125L154.625 47.0312H164.188V49.2188H142.312V46.8438H152.375L152.219 43.1875C150.656 43.0417 149.396 42.5312 148.438 41.6562C147.479 40.7812 147 39.6562 147 38.2812ZM157.25 38.2812C157.25 37.9062 157.156 37.5312 156.969 37.1562C156.781 36.7812 156.51 36.4479 156.156 36.1562C155.823 35.8438 155.417 35.6042 154.938 35.4375C154.479 35.25 153.958 35.1562 153.375 35.1562C152.625 35.1562 151.969 35.25 151.406 35.4375C150.865 35.6042 150.417 35.8333 150.062 36.125C149.708 36.4167 149.438 36.7396 149.25 37.0938C149.083 37.4479 149 37.8021 149 38.1562C149 38.6979 149.115 39.1667 149.344 39.5625C149.573 39.9583 149.875 40.2812 150.25 40.5312C150.646 40.7812 151.104 40.9688 151.625 41.0938C152.146 41.2188 152.688 41.2812 153.25 41.2812C153.771 41.2604 154.271 41.1771 154.75 41.0312C155.229 40.8854 155.656 40.6875 156.031 40.4375C156.406 40.1667 156.698 39.8542 156.906 39.5C157.135 39.125 157.25 38.7188 157.25 38.2812ZM147.625 59.5938L146.25 58.5312V51.4688H148.188V57.4688L162.375 57.7812C162.375 58.1979 162.375 58.5208 162.375 58.75C162.396 59 162.406 59.1875 162.406 59.3125C162.406 59.4375 162.406 59.5312 162.406 59.5938C162.427 59.6562 162.438 59.7188 162.438 59.7812L147.625 59.5938Z" fill="black"/>
<path d="M148.715 28H144.511V6.99414H159.218V11.1982H148.715V15.4023H155.014V19.6064H148.715V28Z" fill="#FD8B05"/>
<path d="M182.234 59H177.766V41.0781H171.031V36.5938H188.953V41.0781H182.234V59Z" fill="#0A22F8"/>
</svg>
