<svg xmlns="http://www.w3.org/2000/svg" width="14" height="10" viewBox="0 0 14 10" fill="none">
<path d="M12.546 3.98111C12.549 4.78058 12.2421 5.55005 11.6898 6.12808C11.1375 6.70612 10.3827 7.04773 9.58392 7.08109L6.62195 8.85403L6.98093 7.08109H4.42294C3.62717 7.04324 2.87651 6.70049 2.32672 6.12393C1.77693 5.54737 1.47021 4.7812 1.47021 3.98453C1.47021 3.18785 1.77693 2.42181 2.32672 1.84525C2.87651 1.26869 3.62717 0.925939 4.42294 0.888093H9.44992C9.85776 0.88627 10.262 0.964869 10.6395 1.11929C11.0169 1.27372 11.3603 1.50097 11.65 1.78812C11.9374 2.07589 12.1646 2.41795 12.3184 2.79446C12.4723 3.17098 12.5496 3.5744 12.546 3.98111Z" stroke="#BBCDF7" stroke-linecap="round" stroke-linejoin="round"/>
</svg>