<svg width="90" height="90" viewBox="-8 0 80 60" fill="none" xmlns="http://www.w3.org/2000/svg">
<path d="M63.563 59.0788C59.5678 63.5301 54.68 67.0902 49.2177 69.5273C43.7555 71.9644 37.8412 73.224 31.86 73.224C25.8787 73.224 19.9645 71.9644 14.5022 69.5273C9.04 67.0902 4.1522 63.5301 0.156982 59.0788C9.17856 51.9318 20.3504 48.0427 31.86 48.0427C43.3695 48.0427 54.5414 51.9318 63.563 59.0788ZM31.863 39.2298C35.6593 39.23 39.3704 38.1045 42.527 35.9955C45.6836 33.8865 48.1439 30.8889 49.5967 27.3816C51.0496 23.8743 51.4298 20.0149 50.6892 16.2915C49.9486 12.5681 48.1206 9.14799 45.4362 6.46361C42.7518 3.77922 39.3317 1.95113 35.6083 1.21055C31.8849 0.469981 28.0256 0.850211 24.5183 2.30308C21.011 3.75596 18.0133 6.2162 15.9043 9.37279C13.7953 12.5294 12.6698 16.2405 12.67 20.0368C12.6702 25.1265 14.692 30.0077 18.2907 33.6069C21.8894 37.2062 26.7703 39.2288 31.86 39.2298H31.863Z" fill="url(#paint0_linear_125_21360)"/>
<defs>
<linearGradient id="paint0_linear_125_21360" x1="15.9451" y1="57.7342" x2="154.39" y2="-48.4676" gradientUnits="userSpaceOnUse">
<stop offset="0.014" stop-color="#FCCBF3"/>
<stop offset="1" stop-color="#72CDFF"/>
</linearGradient>
</defs>
</svg>
