<svg xmlns="http://www.w3.org/2000/svg" width="76" height="75" viewBox="0 0 76 75" fill="none">
<g filter="url(#filter0_d_125_11123)">
<path d="M37.9631 62.343C51.5956 62.343 62.6471 51.2916 62.6471 37.659C62.6471 24.0264 51.5956 12.975 37.9631 12.975C24.3305 12.975 13.2791 24.0264 13.2791 37.659C13.2791 51.2916 24.3305 62.343 37.9631 62.343Z" fill="#FCCBF3"/>
</g>
<path d="M34.4192 28.519C34.4036 27.9207 34.5207 27.3265 34.7622 26.779C34.9712 26.3184 35.2907 25.9164 35.6922 25.6089C36.0802 25.3153 36.5218 25.1003 36.9922 24.9759C37.4631 24.8491 37.9486 24.7849 38.4362 24.785C39.4013 24.781 40.3432 25.08 41.1292 25.6399C41.5582 25.9788 41.8951 26.42 42.109 26.9231C42.3229 27.4261 42.4069 27.9749 42.3532 28.519V34.219H48.4732C49.0155 34.1495 49.5665 34.2174 50.0756 34.4164C50.5848 34.6154 51.0358 34.9392 51.3872 35.3579C51.8703 36.1517 52.1318 37.0604 52.1447 37.9895C52.1575 38.9186 51.9212 39.8342 51.4602 40.641C51.0022 41.3803 50.0066 41.7493 48.4732 41.748H42.3532V47.0639C42.3803 47.7554 42.2634 48.445 42.0102 49.089C41.8081 49.5585 41.5077 49.9793 41.1292 50.323C40.7741 50.637 40.3444 50.8549 39.8813 50.956C38.9298 51.1666 37.9437 51.1666 36.9922 50.956C36.5153 50.8495 36.0701 50.6327 35.6922 50.323C35.2891 49.9909 34.9704 49.568 34.7622 49.089C34.5084 48.4451 34.3916 47.7554 34.4192 47.0639V41.748H28.1522C26.6856 41.748 25.7146 41.3896 25.2392 40.673C24.7383 39.8566 24.4912 38.91 24.5292 37.953C24.5285 37.4965 24.5697 37.0409 24.6522 36.592C24.7302 36.1583 24.9056 35.7479 25.1652 35.3919C25.4507 35.016 25.83 34.7218 26.2652 34.539C26.8651 34.3051 27.5068 34.1971 28.1502 34.222H34.4192V28.519Z" fill="white"/>
<defs>
<filter id="filter0_d_125_11123" x="0.623053" y="0.318975" width="74.6799" height="74.68" filterUnits="userSpaceOnUse" color-interpolation-filters="sRGB">
<feFlood flood-opacity="0" result="BackgroundImageFix"/>
<feColorMatrix in="SourceAlpha" type="matrix" values="0 0 0 0 0 0 0 0 0 0 0 0 0 0 0 0 0 0 127 0" result="hardAlpha"/>
<feOffset/>
<feGaussianBlur stdDeviation="6.328"/>
<feColorMatrix type="matrix" values="0 0 0 0 0.2 0 0 0 0 0.109804 0 0 0 0 0.486275 0 0 0 0.302 0"/>
<feBlend mode="normal" in2="BackgroundImageFix" result="effect1_dropShadow_125_11123"/>
<feBlend mode="normal" in="SourceGraphic" in2="effect1_dropShadow_125_11123" result="shape"/>
</filter>
</defs>
</svg>