<svg xmlns="http://www.w3.org/2000/svg" width="42" height="49" viewBox="0 0 42 49" fill="none">
<path d="M34.915 19.539V7.59804C34.915 5.84761 34.2197 4.16888 32.9819 2.93114C31.7442 1.6934 30.0655 0.998047 28.315 0.998047H14.5721C12.8216 0.998047 11.1429 1.6934 9.90512 2.93114C8.66738 4.16888 7.97205 5.84761 7.97205 7.59804V19.539H0.998047V48.766H41.881V19.539H34.915ZM13.8391 8.88304C13.8391 8.29957 14.0708 7.73999 14.4834 7.32741C14.896 6.91483 15.4556 6.68304 16.039 6.68304H26.8521C27.4355 6.68304 27.9951 6.91483 28.4077 7.32741C28.8203 7.73999 29.052 8.29957 29.052 8.88304V19.541H13.8391V8.88304ZM24.014 35.593V41.168H18.864V35.593C17.9125 35.0291 17.1725 34.1682 16.7579 33.1428C16.3434 32.1173 16.2772 30.984 16.5695 29.9172C16.8619 28.8505 17.4966 27.9093 18.376 27.2384C19.2555 26.5675 20.3309 26.2042 21.437 26.2042C22.5432 26.2042 23.6186 26.5675 24.4981 27.2384C25.3775 27.9093 26.0122 28.8505 26.3046 29.9172C26.5969 30.984 26.5307 32.1173 26.1161 33.1428C25.7016 34.1682 24.9616 35.0291 24.01 35.593H24.014Z" fill="#BBCDF7"/>
</svg>